<?xml version="1.0" encoding="utf-8"?>
<!-- Generator: Adobe Illustrator 23.1.1, SVG Export Plug-In . SVG Version: 6.00 Build 0)  -->
<svg version="1.1" id="Layer_1" xmlns="http://www.w3.org/2000/svg" xmlns:xlink="http://www.w3.org/1999/xlink" x="0px" y="0px"
	 viewBox="0 0 566.93 566.93" style="enable-background:new 0 0 566.93 566.93;" xml:space="preserve">
<style type="text/css">
	.st0{fill:#9CAF48;}
	.st1{fill:#AD9831;}
	.st2{fill:#ECE950;}
	.st3{fill:none;stroke:#9CAF48;stroke-width:2.4268;}
</style>
<g>
	<g>
		<path class="st0" d="M253.9,361.87c0.36-23.84,18.81-41.96,30.96-60.76c3.14-4.86,6.16-9.83,9.92-14.25
			c3.59-4.21,7.78-7.87,12.2-11.17c4.45-3.32,9.13-6.32,13.79-9.32c4.69-3.02,9.41-6,14.24-8.79c9.53-5.52,19.59-10.41,30.39-12.82
			c5.29-1.18,10.72-1.69,16.13-1.38c2.77,0.16,5.68,0.47,8.15,1.84c2.36,1.31,4.15,3.4,5.87,5.43c3.52,4.16,6.85,8.52,10.75,12.34
			c1.91,1.87,3.97,3.57,6.15,5.11c2.32,1.64,4.76,3.14,6.86,5.07c7.05,6.46,8.97,16.37,12.15,24.98c0.84,2.27,1.76,4.52,2.87,6.67
			c1.14,2.2,2.51,4.26,3.91,6.3c2.92,4.25,6.14,8.66,6.7,13.95c0.56,5.3-1.36,10.44-3.93,14.98c-1.33,2.35-2.85,4.59-4.44,6.76
			c-0.79,1.08-1.6,2.15-2.42,3.21c-0.75,0.96-1.58,2.35-0.52,3.45c1.87,1.94,4.08-2.21,1.67-2.56c-0.65-0.09-1.3,0.16-1.49,0.85
			c-0.16,0.57,0.2,1.4,0.85,1.49c-0.11-0.08-0.23-0.15-0.34-0.23c-0.12-0.29-0.24-0.57-0.36-0.86c0.54,0.01,1.07,0.03,1.61,0.04
			c0.09-0.16,0.19-0.32,0.31-0.46c0.19-0.26,0.4-0.51,0.59-0.77c0.41-0.53,0.81-1.05,1.21-1.59c0.88-1.17,1.74-2.35,2.56-3.55
			c1.52-2.21,2.94-4.5,4.12-6.91c2.31-4.71,3.68-9.88,2.85-15.14c-0.8-5.13-3.8-9.46-6.68-13.64c-1.46-2.12-2.91-4.26-4.09-6.56
			c-1.06-2.05-1.94-4.19-2.73-6.36c-3.17-8.67-5.21-18.42-12.01-25.15c-1.99-1.97-4.32-3.53-6.61-5.1
			c-2.24-1.53-4.37-3.15-6.35-5.01c-3.97-3.75-7.32-8.09-10.82-12.27c-1.73-2.06-3.47-4.13-5.67-5.72
			c-2.18-1.58-4.73-2.35-7.37-2.72c-5.37-0.74-10.89-0.45-16.23,0.41c-10.85,1.74-21.09,6.21-30.68,11.45
			c-4.91,2.68-9.69,5.6-14.42,8.59c-4.65,2.94-9.31,5.9-13.84,9.03c-4.49,3.11-8.85,6.44-12.77,10.25
			c-4.07,3.96-7.43,8.49-10.54,13.23c-3.2,4.88-6.32,9.8-9.71,14.55c-3.43,4.79-6.98,9.5-10.3,14.37
			c-6.36,9.28-12.04,19.43-14.1,30.62c-0.49,2.68-0.77,5.39-0.81,8.11C251.45,363.43,253.87,363.43,253.9,361.87L253.9,361.87z"/>
	</g>
</g>
<g>
	<g>
		<path class="st0" d="M251.69,362.98c2.59,6.13,7.09,11.18,11.66,15.92c2.29,2.38,4.57,4.82,7.1,6.96
			c2.64,2.23,5.52,3.97,8.76,5.17c3.2,1.19,6.56,1.87,9.88,2.63c3.49,0.79,6.96,1.69,10.4,2.72c6.86,2.05,13.59,4.56,20.1,7.53
			c7.12,3.25,14.62,7.51,22.73,5.89c0.64-0.13,1.01-0.89,0.85-1.49c-0.18-0.67-0.85-0.98-1.49-0.85
			c-6.79,1.35-13.42-2.18-19.38-4.96c-6.39-2.99-12.97-5.58-19.7-7.7c-3.35-1.06-6.74-2.01-10.16-2.84
			c-3.28-0.8-6.61-1.42-9.85-2.36c-3.16-0.92-6.13-2.21-8.8-4.16c-2.6-1.9-4.85-4.25-7.09-6.55c-4.99-5.14-10.08-10.42-12.91-17.12
			c-0.26-0.6-1.15-0.74-1.66-0.44C251.5,361.68,251.43,362.37,251.69,362.98L251.69,362.98z"/>
	</g>
</g>
<g>
	<g>
		<path d="M347.17,387.94c-1.85-0.1-2.84,1.71-3.12,3.3c-0.34,1.94-0.4,4.06-0.27,6.02c0.13,1.96,0.55,4,1.62,5.68
			c0.93,1.46,2.3,2.62,3.89,3.29c1.81,0.76,3.84,0.79,5.57-0.21c1.35-0.78,0.13-2.88-1.22-2.1c-1.28,0.73-2.76,0.49-4.02-0.22
			c-1.42-0.81-2.39-2.1-2.9-3.65c-0.63-1.94-0.62-4.01-0.51-6.03c0.05-0.91,0.06-1.84,0.28-2.69c0.08-0.3,0.17-0.59,0.36-0.84
			c-0.06,0.08,0.29-0.22,0.14-0.13c-0.1,0.03-0.07,0.02,0.07-0.02c-0.1,0.02-0.07,0.03,0.09,0.02
			C348.73,390.46,348.73,388.03,347.17,387.94L347.17,387.94z"/>
	</g>
</g>
<g>
	<g>
		<path d="M356.53,404.56c-0.27-2.03-0.59-4.04-0.94-6.06c-0.32-1.8-0.56-3.64-1.07-5.39c-0.48-1.67-1.3-3.22-2.7-4.28
			c-1.3-0.98-3.01-1.44-4.58-0.91c-1.47,0.49-0.84,2.83,0.65,2.34c2.71-0.9,4.1,2.48,4.56,4.51c0.72,3.22,1.25,6.53,1.67,9.8
			c0.09,0.65,0.5,1.21,1.21,1.21C355.91,405.78,356.62,405.22,356.53,404.56L356.53,404.56z"/>
	</g>
</g>
<g>
	<g>
		<path d="M352.86,402.97c0,0-0.16-0.04-0.03,0.02c-0.12-0.06-0.22-0.15-0.32-0.28c-0.24-0.31-0.41-0.7-0.52-1.07
			c-0.39-1.24-0.63-2.55-0.91-3.83c-0.58-2.67-1.07-5.35-1.46-8.05c-0.19,0.46-0.37,0.91-0.56,1.37c-1.06,0.67-0.75-0.41-0.6,0.13
			c0.04,0.14,0.12,0.29,0.18,0.43c0.17,0.42,0.34,0.84,0.5,1.26c0.33,0.84,0.65,1.68,0.97,2.53c0.55,1.48,2.59,0.89,2.34-0.65
			c-0.16-0.94-0.49-1.84-0.96-2.67c-0.62-1.11-2.18-0.53-2.26,0.61c-0.14,1.99,0.36,3.99,1.4,5.69c0.62,1.03,2.25,0.6,2.26-0.61
			c0.02-1.73-0.21-3.46-0.67-5.14c-0.42-1.51-2.67-0.88-2.34,0.65c0.51,2.31,1.36,4.54,2.5,6.61c0.69,1.24,2.51,0.38,2.22-0.93
			c-0.58-2.57-1.38-5.07-2.4-7.5c-0.74,0.31-1.48,0.62-2.22,0.93c1.53,3.49,3.08,7.13,2.94,11.02c0.79-0.11,1.59-0.22,2.38-0.32
			c-0.38-2.38-1.15-4.66-2.23-6.81c-0.55-1.09-2.28-0.56-2.26,0.61c0.04,2.08,0.6,4.09,1.64,5.89c0.68,1.18,2.61,0.4,2.22-0.93
			c-0.32-1.09-0.64-2.17-0.95-3.26c-0.17-0.58-0.74-0.96-1.33-0.87c-0.54,0.08-1.12,0.58-1.05,1.19c0.13,1.22,0.26,2.43,0.4,3.65
			c0.75-0.2,1.51-0.41,2.26-0.61c-0.82-1.73-1.33-3.62-1.51-5.53c-0.06-0.65-0.51-1.21-1.21-1.21c-0.61,0-1.27,0.56-1.21,1.21
			c0.22,2.36,0.83,4.6,1.84,6.75c0.5,1.06,2.39,0.57,2.26-0.61c-0.13-1.22-0.26-2.43-0.4-3.65c-0.79,0.11-1.59,0.22-2.38,0.32
			c0.32,1.09,0.64,2.17,0.95,3.26c0.74-0.31,1.48-0.62,2.22-0.93c-0.83-1.43-1.27-3.01-1.31-4.67c-0.75,0.2-1.51,0.41-2.26,0.61
			c0.99,1.96,1.64,4.06,1.99,6.23c0.22,1.4,2.34,0.99,2.38-0.32c0.15-4.33-1.57-8.36-3.27-12.24c-0.54-1.24-2.75-0.33-2.22,0.93
			c1.02,2.43,1.82,4.93,2.4,7.5c0.74-0.31,1.48-0.62,2.22-0.93c-1.05-1.9-1.8-3.91-2.26-6.03c-0.78,0.22-1.56,0.43-2.34,0.65
			c0.41,1.48,0.6,2.96,0.58,4.49c0.75-0.2,1.51-0.41,2.26-0.61c-0.83-1.37-1.18-2.87-1.07-4.47c-0.75,0.2-1.51,0.41-2.26,0.61
			c0.37,0.66,0.59,1.35,0.71,2.09c0.78-0.22,1.56-0.43,2.34-0.65c-0.51-1.39-1.05-2.76-1.61-4.13c-0.48-1.17-1.62-2.55-3.01-1.67
			c-0.5,0.32-0.64,0.81-0.56,1.37c0.46,3.18,1.05,6.33,1.78,9.46c0.5,2.18,1.31,6.2,4.45,5.44
			C355.03,404.95,354.38,402.61,352.86,402.97L352.86,402.97z"/>
	</g>
</g>
<g>
	<g>
		<path d="M421.82,355.1c0.57,2.57,1.26,5.12,2.08,7.63c0.4,1.24,0.83,2.46,1.29,3.68c0.22,0.59,0.45,1.18,0.69,1.76
			c0.26,0.65,0.48,1.34,1.09,1.75c1.02,0.69,2.22,0.2,2.8-0.8c0.55-0.95,0.5-2.06,0.43-3.12c-0.15-2.28-0.71-4.49-1.62-6.59
			c-1.02-2.35-2.52-4.49-4.38-6.26c-0.69-0.66-1.72-0.32-2.03,0.54c-0.87,2.45,0.33,4.88,1.51,6.99c1.23,2.2,2.15,4.38,2.54,6.89
			c0.18,1.15,2.18,1.17,2.34,0c0.36-2.58-0.06-5.09-0.87-7.55c-0.39-1.19-0.8-2.43-1.34-3.56c-0.49-1.03-1.45-1.82-2.65-1.5
			c-1.51,0.4-0.87,2.74,0.65,2.34c-0.2,0.07-0.32,0.04-0.37-0.08c0.01,0,0.02,0.01,0.02,0.01c-0.02,0.06,0.21,0.36,0.25,0.45
			c0.17,0.38,0.31,0.79,0.45,1.19c0.34,0.89,0.66,1.79,0.92,2.7c0.5,1.72,0.84,3.55,0.59,5.35c0.78,0,1.56,0,2.34,0
			c-0.37-2.38-1.2-4.61-2.36-6.71c-0.97-1.74-2.43-3.8-1.69-5.88c-0.68,0.18-1.35,0.36-2.03,0.54c2.64,2.51,4.39,5.8,5.06,9.38
			c0.16,0.87,0.24,1.76,0.26,2.65c0.01,0.39-0.07,0.61-0.1,0.94c-0.01,0.15-0.06,0.07-0.04,0.1c-0.22-0.27,0.61,0,0.62-0.01
			c0.13,0.1,0.16,0.1,0.09-0.01c-0.02-0.04-0.04-0.08-0.06-0.12c-0.29-1.02-0.8-2.02-1.17-3.02c-0.38-1.04-0.73-2.08-1.07-3.13
			c-0.75-2.36-1.4-4.76-1.94-7.18C423.82,352.94,421.48,353.58,421.82,355.1L421.82,355.1z"/>
	</g>
</g>
<g>
	<g>
		<path class="st0" d="M346.01,380.37c0.87-3.63,1.74-7.27,2.62-10.9c0.76-3.16,1.45-6.4,2.91-9.32c1.44-2.88,3.65-5.17,6-7.33
			c2.37-2.19,4.77-4.36,7.27-6.4c2.4-1.96,4.94-3.76,7.68-5.2c2.84-1.49,5.89-2.5,9.06-3c6.36-0.99,12.89,0.18,18.96,2.1
			c3.55,1.12,6.99,2.53,10.37,4.09c1.53,0.71,3.13,1.37,4.55,2.3c1.02,0.67,1.98,1.55,1.85,2.82c-0.07,0.65,0.6,1.21,1.21,1.21
			c0.71,0,1.15-0.56,1.21-1.21c0.32-3.18-2.97-5-5.39-6.16c-3.19-1.54-6.44-2.97-9.76-4.21c-6.4-2.37-13.26-4.03-20.12-3.65
			c-3.42,0.19-6.81,0.87-9.99,2.15c-3.13,1.27-6.03,3-8.74,5.01c-2.67,1.98-5.18,4.18-7.65,6.41c-2.53,2.28-5.11,4.55-7.1,7.34
			c-2.24,3.15-3.33,6.91-4.24,10.62c-1.03,4.23-2.03,8.47-3.05,12.7C343.31,381.24,345.65,381.89,346.01,380.37L346.01,380.37z"/>
	</g>
</g>
<g>
	<g>
		<path class="st0" d="M362.09,403.78c8.58-3.72,17.53-6.48,26.32-9.62c8.18-2.92,16.31-6.2,23.75-10.73
			c4.07-2.48,7.91-5.35,11.36-8.64c1.13-1.08-0.59-2.8-1.72-1.72c-6.05,5.8-13.34,10.09-20.93,13.55
			c-8.19,3.73-16.78,6.47-25.26,9.43c-4.97,1.73-9.91,3.55-14.75,5.65c-0.6,0.26-0.74,1.14-0.44,1.66
			C360.79,403.96,361.48,404.04,362.09,403.78L362.09,403.78z"/>
	</g>
</g>
<g>
	<g>
		<path class="st0" d="M359.15,407.88c-0.25,3.91,3.28,6.38,6.41,7.83c1.68,0.78,3.35,1.53,4.84,2.65c1.4,1.05,2.63,2.33,3.81,3.61
			c2.42,2.63,4.69,5.39,7.65,7.45c3.05,2.12,6.64,3.15,10.31,2.28c1.97-0.47,3.85-1.32,5.74-2.05c2.01-0.78,4.01-1.56,6.02-2.34
			c3.68-1.43,7.42-2.76,11.02-4.38c3.08-1.38,6.03-3.18,8.09-5.91c2.25-2.97,2.93-6.71,3.27-10.33c0.39-4.13,0.64-8.29,0.82-12.44
			c0.18-4.27,0.2-8.55-0.14-12.81c-0.09-1.06-0.2-2.13-0.33-3.19c-0.08-0.65-0.5-1.21-1.21-1.21c-0.59,0-1.3,0.56-1.21,1.21
			c1.03,8.18,0.54,16.43-0.05,24.62c-0.25,3.44-0.35,7.06-1.7,10.28c-1.25,2.96-3.65,5.01-6.41,6.52c-2.99,1.64-6.26,2.75-9.42,3.98
			c-3.86,1.5-7.71,3-11.57,4.5c-1.63,0.63-3.33,1.34-5.1,1.44c-1.56,0.09-3.12-0.25-4.53-0.91c-3.09-1.45-5.45-3.93-7.69-6.42
			c-2.56-2.85-5.14-5.77-8.6-7.54c-2.78-1.42-7.83-2.87-7.57-6.85c0.04-0.65-0.59-1.21-1.21-1.21
			C359.67,406.66,359.19,407.22,359.15,407.88L359.15,407.88z"/>
	</g>
</g>
<g>
	<g>
		<path class="st0" d="M428.29,399.51c0.73-1.49,1.93-2.59,3.16-3.67c1.33-1.17,2.64-2.34,3.64-3.82c2.24-3.34,3.1-7.78,3.27-11.74
			c0.05-1.2,0.02-2.41-0.08-3.6c-0.05-0.61-0.17-1.22-0.22-1.82c-0.02-0.29-0.07-0.42,0.07-0.54c0.52-0.4,0.42-1.29,0-1.72
			c-0.51-0.51-1.2-0.4-1.72,0c-0.73,0.57-0.86,1.56-0.76,2.42c0.12,1.02,0.25,2.03,0.28,3.05c0.08,2.1-0.08,4.21-0.5,6.27
			c-0.4,1.94-0.96,3.9-1.94,5.64c-0.87,1.56-2.14,2.73-3.47,3.9c-1.47,1.29-2.94,2.63-3.82,4.41
			C425.51,399.68,427.6,400.91,428.29,399.51L428.29,399.51z"/>
	</g>
</g>
<g>
	<g>
		<path class="st0" d="M433.62,353.31c1.23,2.01,2.47,4.03,3.7,6.04c1.08,1.76,2.1,3.57,3.4,5.18c1.27,1.57,2.92,2.73,4.9,3.22
			c1.94,0.48,3.98,0.45,5.86,1.2c1.73,0.69,3.26,1.84,4.79,2.87c1.62,1.1,3.29,2.11,5.17,2.71c4.09,1.31,8.45,0.67,12.62,1.47
			c4.17,0.8,7.92,3.04,10.65,6.29c0.42,0.5,1.28,0.44,1.72,0c0.5-0.5,0.42-1.21,0-1.72c-2.47-2.94-5.78-5.13-9.43-6.32
			c-4.02-1.31-8.23-0.86-12.35-1.48c-1.98-0.3-3.78-0.94-5.49-1.97c-1.61-0.98-3.11-2.13-4.74-3.08c-1.74-1.01-3.54-1.6-5.53-1.88
			c-1.87-0.26-3.79-0.46-5.27-1.77c-1.61-1.43-2.65-3.41-3.77-5.22c-1.38-2.26-2.76-4.51-4.15-6.77
			C434.9,350.76,432.8,351.97,433.62,353.31L433.62,353.31z"/>
	</g>
</g>
<g>
	<g>
		<path class="st1" d="M436.13,372.92c0.78,2.15,2.45,3.77,4.53,4.69c2.34,1.03,4.82,1.16,7.34,0.83c2.88-0.38,5.67-1.25,8.54-1.74
			c2.82-0.49,5.68-0.73,8.53-0.86c3.3-0.15,6.6-0.15,9.9-0.15c1.56,0,1.56-2.43,0-2.43c-5.54,0-11.11,0-16.61,0.74
			c-2.73,0.36-5.37,0.98-8.05,1.58c-2.31,0.51-4.77,0.94-7.1,0.37c-1.97-0.49-4-1.65-4.72-3.65c-0.22-0.62-0.82-1.03-1.49-0.85
			C436.38,371.59,435.9,372.3,436.13,372.92L436.13,372.92z"/>
	</g>
</g>
<g>
	<g>
		<path class="st0" d="M331.38,409c0.9,1.83,1.94,3.59,3.12,5.24c1.13,1.57,2.35,3.15,3.81,4.43c1.51,1.33,3.26,2.23,5.22,2.68
			c1.91,0.44,3.87,0.52,5.81,0.71c3.62,0.36,7.35,1.13,10.36,3.28c2.9,2.07,4.99,5.21,8.65,6.05c4.2,0.96,8.48-0.98,11.77-3.47
			c0.52-0.4,0.79-1.05,0.44-1.66c-0.3-0.51-1.13-0.83-1.66-0.44c-2.61,1.98-5.98,3.83-9.38,3.33c-3.37-0.49-5.46-3.5-7.99-5.45
			c-2.89-2.24-6.43-3.29-10-3.8c-3.47-0.49-7.47-0.18-10.52-2.18c-1.66-1.09-2.99-2.75-4.16-4.33c-1.3-1.76-2.43-3.64-3.39-5.61
			c-0.29-0.59-1.12-0.75-1.66-0.44C331.22,407.69,331.1,408.41,331.38,409L331.38,409z"/>
	</g>
</g>
<g>
	<g>
		<path class="st0" d="M336.86,415.74c-4.9-0.05-9.85-0.64-14.31-2.79c-2.25-1.08-4.41-2.35-6.75-3.25
			c-2.32-0.89-4.74-1.44-7.2-1.72c-2.76-0.31-5.54-0.17-8.28,0.33c-0.65,0.12-1.01,0.9-0.85,1.49c0.19,0.68,0.85,0.96,1.49,0.85
			c4.67-0.85,9.54-0.36,13.98,1.31c2.25,0.85,4.31,2.1,6.48,3.13c2.26,1.08,4.62,1.85,7.07,2.32c2.75,0.52,5.56,0.72,8.36,0.75
			C338.42,418.18,338.42,415.76,336.86,415.74L336.86,415.74z"/>
	</g>
</g>
<g>
	<g>
		<path class="st0" d="M275.21,387.37c0.26,2.04,0.51,4.12,1.26,6.05c0.75,1.95,1.92,3.56,3.58,4.83c2.95,2.26,6.7,3.18,9.96,4.91
			c6.56,3.5,11.95,8.7,17.57,13.46c2.86,2.43,5.81,4.78,9,6.78c3.4,2.13,7.01,3.55,10.8,4.83c2.02,0.68,4.01,1.42,5.84,2.53
			c1.64,0.99,3.12,2.19,4.52,3.5c2.93,2.74,5.48,5.86,8.41,8.6c5.92,5.53,13.66,9.69,21.91,9.85c0.99,0.02,1.98-0.03,2.97-0.13
			c0.65-0.07,1.21-0.51,1.21-1.21c0-0.6-0.56-1.28-1.21-1.21c-7.86,0.82-15.51-2.53-21.46-7.5c-6.06-5.07-10.41-12.19-17.9-15.39
			c-3.73-1.59-7.68-2.53-11.27-4.45c-3.15-1.68-6.06-3.77-8.83-6.02c-5.69-4.61-10.92-9.82-17.09-13.81
			c-1.53-0.99-3.11-1.89-4.75-2.68c-1.65-0.79-3.36-1.41-5.02-2.17c-1.61-0.74-3.21-1.6-4.41-2.93c-1.26-1.38-1.84-3.2-2.2-5
			c-0.19-0.94-0.32-1.89-0.45-2.85c-0.08-0.65-0.5-1.21-1.21-1.21C275.83,386.16,275.13,386.72,275.21,387.37L275.21,387.37z"/>
	</g>
</g>
<g>
	<g>
		<path class="st0" d="M256.86,381.31c-4.34-3.53-9.09-6.48-14.2-8.75c-0.6-0.27-1.3-0.17-1.66,0.44c-0.3,0.52-0.17,1.39,0.44,1.66
			c4.91,2.18,9.54,4.98,13.71,8.37c0.51,0.41,1.22,0.5,1.72,0C257.28,382.6,257.37,381.72,256.86,381.31L256.86,381.31z"/>
	</g>
</g>
<g>
	<g>
		<path class="st0" d="M221.27,364.45c-8.25-4.48-16.64-9.03-23.72-15.28c-1.74-1.53-3.39-3.16-4.92-4.9c-1.68-1.9-3.11-4-4.78-5.9
			c-1.71-1.96-3.77-3.53-5.83-5.1c-1.9-1.45-3.73-2.98-5.4-4.69c-3.6-3.69-6.51-8.08-8.48-12.84c-0.25-0.61-0.81-1.04-1.49-0.85
			c-0.57,0.16-1.1,0.88-0.85,1.49c1.84,4.47,4.37,8.6,7.56,12.24c1.57,1.79,3.29,3.45,5.14,4.96c2.01,1.63,4.16,3.1,6.05,4.87
			c1.9,1.79,3.38,3.93,5.01,5.95c1.51,1.86,3.15,3.6,4.89,5.24c3.52,3.3,7.43,6.18,11.49,8.78c4.57,2.93,9.34,5.54,14.1,8.13
			C221.42,367.29,222.65,365.2,221.27,364.45L221.27,364.45z"/>
	</g>
</g>
<g>
	<g>
		<path class="st1" d="M167.42,314.37c-1.88,1.01-3.77,2.03-5.65,3.04c-1.52,0.82-3.35,2.18-5.19,1.94c-1.74-0.23-3.3-1.54-4.71-2.5
			c-1.5-1.02-2.99-2.07-4.45-3.15c-5.79-4.28-11.24-9.03-16.3-14.15c-5.08-5.15-9.77-10.69-13.99-16.58c-2.12-2.96-4.15-6-6.01-9.14
			c-0.98-1.65-1.91-3.35-2.61-5.15c-0.71-1.83-1.04-3.72-1.52-5.6c-0.79-3.1-2.68-5.47-4.88-7.71c-1.8-1.84-3.96-3.71-4.94-6.12
			c-0.23-0.56-0.41-1.21-0.47-1.78c-0.07-0.65-0.51-1.21-1.21-1.21c-0.6,0-1.29,0.56-1.21,1.21c0.34,3.06,2.09,5.45,4.16,7.62
			c1.96,2.06,4.22,3.97,5.5,6.56c0.82,1.66,1,3.57,1.47,5.34c0.52,1.95,1.32,3.82,2.24,5.61c1.76,3.41,3.93,6.65,6.12,9.8
			c4.26,6.15,9,11.96,14.17,17.37c5.2,5.43,10.83,10.43,16.82,14.97c1.48,1.12,2.97,2.21,4.49,3.27c1.55,1.08,3.13,2.31,4.86,3.09
			c0.91,0.41,1.87,0.71,2.88,0.71c1.08,0,2.09-0.33,3.07-0.77c1.93-0.87,3.78-1.99,5.64-2.99c0.98-0.53,1.96-1.05,2.93-1.58
			C170.02,315.73,168.8,313.63,167.42,314.37L167.42,314.37z"/>
	</g>
</g>
<g>
	<g>
		<path class="st0" d="M131.22,283.78c-4.6-4.03-9.22-8.03-13.79-12.09c-2.19-1.95-4.36-3.93-6.39-6.05
			c-1.93-2.01-3.68-4.17-5.42-6.34c-1.92-2.39-3.88-4.76-6.23-6.75c-0.5-0.42-1.23-0.49-1.72,0c-0.43,0.43-0.5,1.29,0,1.72
			c4.19,3.54,7.14,8.25,10.86,12.25c4.03,4.34,8.62,8.15,13.07,12.05c2.64,2.31,5.27,4.62,7.91,6.93
			C130.67,286.52,132.39,284.81,131.22,283.78L131.22,283.78z"/>
	</g>
</g>
<g>
	<g>
		<path class="st0" d="M252.51,361.78c-3.61-0.77-7.23-0.13-10.88-0.18c-3.3-0.05-6.53-0.78-9.62-1.91
			c-6.39-2.35-12.08-6.4-17.37-10.61c-5.58-4.44-10.88-9.24-16.39-13.77c-5.61-4.61-11.33-9.08-17.11-13.47
			c-11.55-8.77-23.33-17.21-34.96-25.87c-2.9-2.16-5.79-4.33-8.66-6.52c-1.33-1.02-2.65-2.07-3.83-3.26
			c-1.24-1.24-2.28-2.64-3.26-4.08c-3.52-5.21-6.35-10.88-8.39-16.83c-4.08-11.87-5.2-24.81-2.95-37.18
			c0.28-1.52,0.6-3.02,0.98-4.52c0.38-1.52-1.96-2.16-2.34-0.65c-3.12,12.52-2.88,25.8,0.51,38.24c1.69,6.22,4.18,12.25,7.4,17.84
			c1.66,2.88,3.47,5.81,5.73,8.26c2.42,2.62,5.45,4.67,8.28,6.81c11.71,8.84,23.65,17.38,35.4,26.18
			c5.86,4.38,11.67,8.83,17.38,13.42c5.66,4.55,11.13,9.32,16.69,13.99c5.41,4.54,11.05,9.01,17.37,12.22
			c3.02,1.53,6.21,2.79,9.53,3.49c1.68,0.35,3.4,0.58,5.12,0.63c1.8,0.06,3.6-0.09,5.4-0.17c1.78-0.08,3.57-0.09,5.32,0.28
			C253.39,364.45,254.04,362.11,252.51,361.78L252.51,361.78z"/>
	</g>
</g>
<g>
	<g>
		<path class="st0" d="M154.02,157.61c8.09-2.9,16.36-5.26,24.77-7.02c4.17-0.87,8.37-1.61,12.59-2.19c4.35-0.6,8.88-1.02,13.23-0.2
			c4.05,0.77,7.81,2.53,11.55,4.19c3.79,1.68,7.65,3.1,11.6,4.32c4.01,1.24,8.07,2.35,12.07,3.64c4.12,1.33,8.13,2.94,12.06,4.76
			c7.77,3.6,15.29,7.75,22.86,11.75c7.78,4.12,15.54,8.28,23.22,12.59c7.5,4.21,14.87,8.65,22.24,13.09
			c7.06,4.26,14.21,8.42,21.75,11.78c3.72,1.66,7.52,3.07,11.39,4.35c3.96,1.31,7.95,2.55,11.77,4.25
			c6.28,2.79,12.47,7.1,15.29,13.61c0.34,0.78,0.61,1.6,0.82,2.42c0.08,0.31,0.29,0.76,0.24,1.08c-0.01,0.09-0.12,0.26-0.12,0.32
			c-0.02,0.02-0.03,0.04-0.05,0.07c-0.29,0.37,0.07,0.55,1.08,0.56c-0.57-1.43-2.92-0.81-2.34,0.65c0.59,1.47,2.08,1.57,3.08,0.4
			c1.12-1.31,0.72-2.87,0.26-4.37c-1.03-3.4-3.01-6.45-5.46-9.01c-5.55-5.8-13.13-8.71-20.59-11.2c-4.18-1.39-8.37-2.74-12.43-4.46
			c-3.98-1.69-7.86-3.63-11.66-5.69c-7.72-4.2-15.14-8.92-22.7-13.4c-15.93-9.42-32.33-18.07-48.76-26.58
			c-7.94-4.11-16-7.72-24.57-10.31c-4.29-1.3-8.62-2.48-12.86-3.95c-4.11-1.42-8-3.31-12.02-4.96c-4.12-1.7-8.33-2.74-12.8-2.76
			c-4.53-0.02-9.06,0.71-13.51,1.44c-8.9,1.47-17.7,3.59-26.29,6.34c-2.13,0.68-4.25,1.4-6.36,2.16
			C151.92,155.8,152.54,158.14,154.02,157.61L154.02,157.61z"/>
	</g>
</g>
<g>
	<g>
		<path class="st0" d="M294.41,285.85c1.63-6.23,1.18-12.68,0.8-19.03c-0.19-3.16-0.36-6.34-0.22-9.51
			c0.13-3.09,0.55-6.15,1.24-9.17c0.67-2.93,1.51-5.99,2.83-8.7c0.62-1.27,1.52-2.04,2.82-2.57c1.31-0.53,2.73-0.82,4.14-0.9
			c5.85-0.33,11.61,2.32,16.72,4.89c2.97,1.5,5.86,3.18,8.63,5.02c1.35,0.9,2.68,1.84,3.98,2.82c0.63,0.47,1.24,0.96,1.85,1.45
			c0.35,0.28,0.69,0.56,1.03,0.84c0.11,0.09,0.23,0.19,0.34,0.29c0.1,0.08,0.2,0.17,0.3,0.26c0.21,0.26,0.21,0.13,0.01-0.37
			c0.1-0.18,0.21-0.36,0.31-0.54c0.37,0.02,0.74,0.04,1.12,0.06c0.1,0.18,0.21,0.36,0.31,0.54c-0.01-0.03-0.01-0.06-0.02-0.1
			c-0.12-0.65-0.9-1.01-1.49-0.85c-0.68,0.19-0.96,0.85-0.85,1.49c0.15,0.84,1.08,1.24,1.85,1.05c0.89-0.22,1.36-1.14,1.12-2
			c-0.21-0.75-0.88-1.22-1.45-1.69c-0.66-0.54-1.32-1.08-1.99-1.6c-2.62-2.04-5.35-3.94-8.19-5.66c-2.78-1.69-5.67-3.21-8.63-4.56
			c-3.01-1.37-6.11-2.63-9.37-3.3c-3.2-0.66-6.6-0.77-9.73,0.28c-1.5,0.5-2.99,1.22-4,2.49c-1.04,1.31-1.59,2.98-2.15,4.53
			c-2.39,6.6-3.36,13.6-3.16,20.6c0.23,7.74,1.53,15.66-0.47,23.27C291.67,286.71,294.01,287.36,294.41,285.85L294.41,285.85z"/>
	</g>
</g>
<g>
	<g>
		<path class="st0" d="M264.42,323.57c1.56,0,1.56-2.43,0-2.43C262.86,321.15,262.85,323.57,264.42,323.57L264.42,323.57z"/>
	</g>
</g>
<g>
	<g>
		<path class="st2" d="M304.9,243.48c-2.96,3.11-5.18,8.66-2.95,12.78c2.45,4.51,8.75,4.38,11.85,0.67
			c2.65-3.17,2.83-7.45,1.03-11.08c-1.79-3.6-6.04-6.05-10.07-5.06c-4.8,1.19-6.57,8.08-5.6,12.37c1.01,4.46,5.68,7.77,10.2,6.09
			c4.09-1.52,6.47-5.96,6.12-10.23c-0.35-4.25-2.43-8.11-5.97-10.53c-4.06-2.78-9.19-1.02-11.2,3.3c-1.91,4.1-2.4,9.53,0.84,13.1
			c3.45,3.8,9.2,3.02,12.35-0.72c2.94-3.48,3.55-8.38,1.27-12.39c-2.29-4.04-7.73-6.81-12.12-4.38c-3.71,2.05-5.54,7.51-5.37,11.51
			c0.09,2.23,0.7,4.42,2.32,6.04c1.6,1.6,3.96,2.4,6.2,2.23c4.48-0.34,7.79-3.75,8.73-8.06c0.94-4.34,0.55-9.81-3.85-12.14
			c-2.6-1.38-5.75-0.96-8.09,0.75c-2.14,1.56-3.44,3.67-4.38,6.13c-1.52,4.01-1.6,8.7-1.8,12.93c-0.21,4.45-0.16,8.9,0.13,13.35
			c0.18,2.77,2.09,4.65,4.85,4.85c4.23,0.31,8.19-1.22,11.98-2.89c3.27-1.44,6.46-3.06,9.55-4.85c6.35-3.67,12.3-8.06,17.75-12.97
			c1.81-1.63,1.96-5.27,0-6.86c-10.26-8.35-23.19-12.99-36.47-12.52c0.82,3.01,1.63,6.03,2.45,9.04c0.48-0.35,0.98-0.62,1.48-0.92
			c0.54-0.32-1,0.28,0.1-0.01c0.25-0.07,0.5-0.15,0.75-0.21c0.18-0.04,0.59-0.2,0.77-0.15c-0.58,0.07-0.68,0.09-0.31,0.06
			c0.13-0.01,0.26-0.02,0.39-0.02c0.59-0.03,1.18,0,1.78,0.04c0.52,0.03,0.33,0.08-0.06-0.01c0.37,0.09,0.74,0.14,1.11,0.23
			c0.66,0.16,1.31,0.35,1.96,0.56c0.65,0.21,1.29,0.45,1.92,0.71c0.08,0.03,0.92,0.37,0.47,0.19c-0.49-0.21,0.71,0.31,0.68,0.29
			c0.5,0.22,1,0.46,1.5,0.69c1.02,0.46-0.31-0.36,0.13,0.05c0.4,0.37-0.24-0.58-0.11-0.08c0.28,1.06,1.03,2.23,1.61,3.16
			c1.66,2.69,3.8,4.8,6.31,6.68c1.93,1.45,4.93,0.48,6.26-1.25c1.45-1.87,1.36-4.67-0.38-6.37c-2.32-2.27-4.97-4.24-7.84-5.76
			c-2.15-1.14-4.75-0.7-6.26,1.25c-1.38,1.79-1.45,4.78,0.38,6.37c2.31,2,4.62,4,6.93,6c1.92,1.66,5,2.03,6.86,0
			c1.95-2.12,1.69-4.73,0-6.86c-2.71-3.42-6.83-5.88-11.1-6.75c-3.36-0.68-5.77,1.42-6.14,4.68c-0.29,2.52,0.03,5.17,0.84,7.57
			c2.96-1.25,5.91-2.49,8.87-3.74c-1-1.6-2-3.2-3-4.79c-1.1-1.76-3.41-2.9-5.48-2.23c-2,0.65-3.62,2.49-3.56,4.68
			c0.12,4.73,2.39,8.58,6.09,11.39c2.77,2.1,7.77-0.7,7.3-4.19c-0.28-2.13-0.56-4.26-0.85-6.39c-2.76,1.14-5.52,2.29-8.29,3.43
			c0.29,0.31,0.57,0.63,0.85,0.96c0.18,0.22,0.36,0.44,0.54,0.66c-0.28-0.36-0.32-0.41-0.11-0.13c0.52,0.77,1.05,1.52,1.53,2.31
			c1.31,2.17,4.42,3.17,6.64,1.74c2.26-1.46,3.05-4.26,1.74-6.64c-2.02-3.68-4.84-6.65-8.19-9.13c-1.65-1.22-4.54-0.7-5.88,0.76
			c-1.4,1.52-1.99,4.05-0.76,5.88c2.64,3.92,5.91,7.17,9.88,9.75c4.01,2.61,9.32-2.62,6.64-6.64c-2.94-4.42-7.55-7.78-12.87-8.6
			c-2.39-0.37-5.49,0.58-5.97,3.39c-0.7,4.09-0.54,8.27,1.04,12.15c0.92,2.27,2.74,3.82,5.33,3.48c2.17-0.29,4.47-2.36,4.21-4.77
			c-0.18-1.67-0.36-3.33-0.54-5c-0.27-2.52-2.04-4.98-4.85-4.85c-2.6,0.12-4.89,2.13-4.85,4.85c0.04,2.58,0.45,5.18,1.33,7.6
			c0.83,2.29,2.81,3.81,5.33,3.48c2.41-0.32,4.14-2.33,4.21-4.77c0.11-3.61-1.31-6.99-3.74-9.63c-1.9-2.06-4.91-1.61-6.86,0
			c-3.71,3.06-4.9,7.88-4.2,12.46c0.36,2.38,3.18,3.76,5.33,3.48c2.42-0.33,4.12-2.33,4.21-4.77c0.11-2.92-1.06-5.63-3.04-7.74
			c-1.97-2.1-6.34-1.86-7.62,0.98c-1.56,3.46-2.43,7.12-2.08,10.94c0.23,2.52,2.07,4.98,4.85,4.85c2.55-0.11,4.95-2.14,4.85-4.85
			c-0.16-4.65-1.48-9.2-3.99-13.13c-0.93-1.46-2.43-2.4-4.19-2.4c-1.87,0-3.12,0.99-4.19,2.4c-3.51,4.61-4.46,11.16-2.66,16.64
			c0.76,2.31,2.87,3.81,5.33,3.48c2.48-0.33,4.04-2.33,4.21-4.77c0.58-8.32-0.25-16.74-2.33-24.81c-0.96-3.71-5.46-4.49-8.11-2.14
			c-2.58,2.29-3.29,5.69-3.55,8.97c-0.24,3.1-0.35,6.21-0.48,9.31c-0.28,6.46-0.45,12.92-0.52,19.39c-0.03,3.08,3.14,5.61,6.14,4.68
			c4.47-1.38,8.5-3.74,11.88-6.99c1.83-1.76,1.91-5.12,0-6.86c-2.08-1.91-4.77-1.74-6.86,0c-3.5,2.91-6.94,5.9-10.3,8.96
			c-1.88,1.71-1.87,5.15,0,6.86c2.01,1.85,4.86,1.83,6.86,0c3.37-3.07,6.8-6.05,10.3-8.96c-2.29-2.29-4.58-4.58-6.86-6.86
			c-0.34,0.33-0.69,0.65-1.05,0.97c-0.11,0.09-1.1,0.87-0.62,0.52c0.47-0.34-0.72,0.49-0.84,0.57c-0.34,0.22-0.69,0.44-1.04,0.65
			c-0.7,0.41-1.43,0.77-2.17,1.13c-1.01,0.49,0.63-0.19-0.35,0.14c-0.52,0.17-1.02,0.36-1.54,0.52c2.05,1.56,4.1,3.12,6.14,4.68
			c0.07-5.97,0.22-11.95,0.46-17.92c0.12-2.94,0.26-5.89,0.43-8.83c0.04-0.65,0.07-1.3,0.12-1.95c0-0.06,0.09-0.73,0.07-0.73
			c-0.09,0.62-0.11,0.74-0.05,0.38c0.02-0.12,0.04-0.24,0.07-0.36c0.05-0.24,0.1-0.47,0.17-0.71c0.29-1.03,0.07,0.01-0.06-0.01
			c0.01,0,0.33-0.62,0.34-0.61c-0.39,0.46-0.46,0.56-0.22,0.3c0.12-0.13,0.25-0.25,0.39-0.36c-2.7-0.71-5.41-1.43-8.11-2.14
			c0.47,1.84,0.89,3.69,1.22,5.56c0.17,0.93,0.32,1.87,0.44,2.81c-0.13-0.95,0.04,0.4,0.06,0.59c0.06,0.55,0.12,1.1,0.16,1.65
			c0.34,3.86,0.36,7.74,0.09,11.61c3.18-0.43,6.36-0.86,9.53-1.29c-0.16-0.49-0.31-0.99-0.42-1.5c-0.05-0.25-0.1-0.51-0.14-0.76
			c0.08,0.65,0.1,0.69,0.04,0.13c0-0.52-0.04-1.03-0.02-1.56c0.01-0.26,0.03-0.52,0.06-0.78c-0.1,0.65-0.1,0.69-0.01,0.13
			c0.12-0.51,0.21-1.01,0.36-1.51c0.07-0.25,0.72-1.74,0.2-0.66c0.46-0.94,0.98-1.82,1.62-2.65c-2.79,0-5.59,0-8.38,0
			c0.47,0.74,0.89,1.49,1.29,2.27c0.63,1.23-0.28-0.86,0.2,0.44c0.15,0.41,0.3,0.82,0.43,1.23c0.26,0.84,0.44,1.68,0.62,2.54
			c0.2,0.92,0.01-0.35,0.04,0.22c0.02,0.51,0.08,1.01,0.1,1.52c3.24,0,6.47,0,9.71,0c-0.06-0.65-0.1-1.3-0.08-1.96
			c0.01-0.29,0.02-0.58,0.04-0.87c0.02-0.23,0.21-1.18,0.01-0.22c0.12-0.57,0.22-1.14,0.38-1.7c0.1-0.35,0.21-0.7,0.33-1.04
			c0.06-0.18,0.46-1.09,0.09-0.25c-2.54,0.33-5.08,0.65-7.62,0.98c0.39,0.42,0.12,0.26-0.01-0.06c0.34,0.86-0.03-0.5,0.1,0.09
			c0.03,0.11,0.27,0.95,0.13,0.32c-0.14-0.64-0.02,0.43-0.03,0.54c3.18-0.43,6.36-0.86,9.53-1.29c0.21,1.36-0.07-0.55,0.1-0.87
			c-0.23,0.44-0.13,0.75,0.06,0.05c0.02-0.1,0.23-0.87,0.27-0.86c0.04,0.01-0.46,0.88-0.04,0.17c0.15-0.26,0.32-0.51,0.47-0.77
			c0.26-0.45-0.62,0.55,0.04,0c0.28-0.23,0.52-0.5,0.8-0.73c-2.29,0-4.58,0-6.86,0c0.36,0.41,0.36,0.39,0.01-0.06
			c0.16,0.22,0.3,0.44,0.43,0.67c0.16,0.27,0.44,1.3,0.18,0.29c0.04,0.15,0.4,1.01,0.31,1.16c-0.07-0.63-0.08-0.67-0.03-0.1
			c0.01,0.27,0.01,0.53,0,0.8c3.18-0.43,6.36-0.86,9.53-1.29c-0.34-0.94-0.63-1.89-0.82-2.88c-0.05-0.23-0.09-0.45-0.12-0.68
			c0.06,0.45,0.07,0.5,0.03,0.15c-0.01-0.54-0.07-1.07-0.08-1.61c-3.24,0-6.47,0-9.71,0c0.18,1.67,0.36,3.33,0.54,5
			c3.18-0.43,6.36-0.86,9.53-1.29c-0.28-0.69-0.53-1.38-0.73-2.1c-0.1-0.36-0.18-0.72-0.25-1.08c-0.04-0.21-0.15-1.21-0.07-0.24
			c-0.06-0.66-0.1-1.33-0.1-1.99c0-0.37,0.04-0.74,0.05-1.11c0.03-1.06-0.14,0.67,0.06-0.47c-1.99,1.13-3.98,2.26-5.97,3.39
			c0.88,0.14,1.75,0.33,2.59,0.63c0.24,0.08,0.48,0.17,0.71,0.27c-0.57-0.24-0.61-0.25-0.12-0.02c0.38,0.23,0.78,0.42,1.16,0.65
			c0.21,0.13,1.34,0.96,0.42,0.23c0.35,0.28,0.68,0.57,1,0.88c0.32,0.31,0.61,0.64,0.92,0.97c0.34,0.42,0.33,0.39-0.05-0.09
			c0.15,0.21,0.29,0.41,0.43,0.63c2.21-2.21,4.43-4.43,6.64-6.64c-0.4-0.26-0.8-0.53-1.19-0.81c-0.17-0.12-0.33-0.24-0.5-0.36
			c0.38,0.3,0.44,0.34,0.17,0.13c-0.67-0.59-1.35-1.15-1.99-1.78c-0.59-0.58-1.15-1.18-1.68-1.8c-0.22-0.25-0.77-0.98-0.27-0.3
			c-0.33-0.44-0.64-0.89-0.95-1.34c-2.21,2.21-4.43,4.43-6.64,6.64c1.08,0.8-0.69-0.64,0.31,0.26c0.26,0.23,0.52,0.45,0.77,0.69
			c0.55,0.52,1.08,1.06,1.58,1.63c0.08,0.09,0.8,0.96,0.4,0.46c-0.39-0.49,0.29,0.4,0.36,0.5c0.47,0.68,0.89,1.38,1.29,2.11
			c2.79-1.63,5.59-3.27,8.38-4.9c-1.24-2.06-2.71-3.99-4.33-5.76c-1.31-1.43-3.59-1.73-5.3-1c-1.59,0.67-3.23,2.56-2.98,4.44
			c0.28,2.13,0.56,4.26,0.85,6.39c2.43-1.4,4.87-2.79,7.3-4.19c0.33,0.25,0.46,0.41,0.1,0.03c-0.22-0.23-0.43-0.47-0.65-0.69
			c-0.43-0.45,0.34,0.63,0.08,0.07c-0.13-0.28-0.33-0.56-0.48-0.82c-0.28-0.49-0.06-0.26,0.03,0.11c-0.06-0.24-0.16-0.48-0.23-0.73
			c-0.04-0.15-0.24-1.21-0.13-0.48c0.11,0.73,0-0.44,0-0.49c-3.01,0.82-6.03,1.63-9.04,2.45c1,1.6,2,3.2,3,4.79
			c1.29,2.06,3.81,2.94,6.06,1.99c2.11-0.89,3.59-3.42,2.81-5.73c-0.15-0.43-0.29-0.86-0.39-1.31c-0.07-0.29-0.14-0.59-0.19-0.89
			c0.05,0.46,0.06,0.52,0.03,0.16c-0.03-1-0.06-1.95,0.06-2.95c-2.05,1.56-4.1,3.12-6.14,4.68c0.83,0.17,1.59,0.43,2.4,0.67
			c0.33,0.13,0.24,0.09-0.27-0.13c0.23,0.11,0.46,0.22,0.69,0.33c0.34,0.18,0.68,0.36,1,0.56c0.33,0.2,0.64,0.42,0.96,0.64
			c-0.92-0.62,0.01,0.02,0.21,0.2c0.67,0.6,1.27,1.26,1.83,1.96c2.29-2.29,4.58-4.58,6.86-6.86c-2.31-2-4.62-4-6.93-6
			c-1.96,2.54-3.92,5.08-5.88,7.62c1.19,0.63,2.34,1.33,3.44,2.12c0.07,0.05,0.77,0.59,0.36,0.26c-0.48-0.38,0.42,0.35,0.5,0.42
			c0.54,0.46,1.06,0.94,1.57,1.44c1.96-2.54,3.92-5.08,5.88-7.62c0.78,0.58,0.02,0-0.14-0.14c-0.26-0.22-0.51-0.45-0.76-0.69
			c-0.49-0.48-0.95-0.99-1.38-1.51c0.43,0.52,0.14,0.18-0.1-0.17c-0.19-0.28-0.38-0.57-0.56-0.86c-0.35-0.59-0.67-1.19-0.95-1.81
			c-0.79-1.71-1.79-3.12-3.37-4.2c-1.38-0.93-3.05-1.5-4.58-2.14c-5.77-2.4-12.99-3.75-18.42,0.28c-1.69,1.25-2.94,3.29-2.23,5.48
			c0.64,1.99,2.49,3.64,4.68,3.56c1.4-0.05,2.79-0.05,4.19,0.02c0.77,0.04,1.53,0.09,2.3,0.17c0.35,0.03,0.69,0.07,1.04,0.11
			c0.96,0.1-0.43-0.08,0.16,0.02c2.83,0.49,5.61,1.08,8.35,1.99c0.66,0.22,1.32,0.45,1.98,0.7c0.33,0.12,0.65,0.26,0.98,0.38
			c0.54,0.2-0.65-0.3,0.19,0.08c1.28,0.57,2.54,1.17,3.76,1.84c1.29,0.7,2.55,1.46,3.77,2.27c0.58,0.39,1.15,0.79,1.72,1.2
			c0.28,0.21,0.56,0.41,0.84,0.63c-0.67-0.52,0.1,0.09,0.33,0.28c0-2.29,0-4.58,0-6.86c-1.25,1.12-2.52,2.22-3.82,3.28
			c-0.28,0.23-0.57,0.46-0.85,0.69c-0.19,0.15-1.06,0.83-0.4,0.32c-0.69,0.53-1.39,1.06-2.1,1.57c-2.65,1.93-5.4,3.72-8.24,5.38
			c-2.83,1.65-5.75,3.17-8.73,4.53c-0.4,0.18-0.8,0.36-1.2,0.54c-0.81,0.37,0.21-0.06-0.3,0.13c-0.78,0.3-1.55,0.61-2.34,0.85
			c-0.86,0.27-1.73,0.49-2.62,0.63c0.87-0.13-0.18-0.02-0.48-0.01c-0.45,0.01-0.89-0.01-1.34-0.05c1.62,1.62,3.24,3.24,4.85,4.85
			c-0.3-4.69-0.35-9.4-0.09-14.09c0.06-1.15,0.14-2.3,0.24-3.45c0.05-0.55,0.09-1.1,0.15-1.65c0.03-0.3,0.29-1.86,0.09-0.82
			c0.18-0.9,0.33-1.8,0.6-2.69c0.08-0.27,0.18-0.53,0.27-0.8c0.17-0.53-0.04,0.13-0.08,0.2c0.1-0.18,0.19-0.37,0.29-0.56
			c0.1-0.19,0.21-0.37,0.32-0.54c-0.11,0.13-0.22,0.27-0.33,0.4c-0.02-0.06,0.34-0.35,0.37-0.4c0.33-0.51-0.68,0.34-0.14,0.07
			c0.03-0.02,0.46-0.25,0.46-0.27c0.01,0.21-1.22,0.32-1.15,0.32c-0.6-0.01-1.24-0.29-1.66-0.72c-0.7-0.72-0.37-0.56-0.21-0.23
			c-0.12-0.25-0.32-0.86-0.14-0.25c0.23,0.79-0.01-0.92,0.04,0.22c0.02,0.41-0.01,0.81-0.03,1.22c-0.03,0.63,0.19,0.2,0.04-0.13
			c0.04,0.1-0.09,0.47-0.11,0.57c-0.04,0.19-0.09,0.38-0.14,0.56c-0.04,0.13-0.47,1.03-0.15,0.5c0.32-0.53-0.04,0.03-0.09,0.1
			c-0.57,0.8,0.02-0.05,0.08-0.08c-0.08,0.04-0.64,0.55-0.02,0.08c0.54-0.42,0.11-0.1-0.02-0.03c1.08-0.52,0.59-0.2,0.29-0.14
			c-0.16,0.03-0.66,0.22,0.03,0.03c0.11-0.02,0.23-0.03,0.34-0.05c-0.42-0.01-0.41,0.01,0.04,0.06c0.39,0.07,0.46,0.08,0.2,0.02
			c-0.25-0.07-0.2-0.03,0.16,0.11c0.72,0.76-0.4-0.59,0.31,0.2c0.22,0.24,0.49,0.4,0.65,0.71c0.12,0.22,0.18,0.92,0.09,0.13
			c0.01,0.05,0.03,0.91,0.06,0.37c0.02-0.46,0.02-0.95,0.02-1.41c0,0.08-0.18,0.82-0.03,0.28c0.09-0.33,0.14-0.67,0.24-0.99
			c0.06-0.19,0.14-0.39,0.19-0.58c0.18-0.67-0.38,0.61-0.01,0.03c0.14-0.22,0.72-1.01,0.72-1.23c-0.02,0.58-1.49,1.02-1.96,1
			c-1.03-0.04-0.47-0.14-0.18,0c-0.45-0.21-0.59-0.08-0.15-0.05c0.05,0.03,0.1,0.06,0.16,0.09c0.3,0.19,0.22,0.11-0.24-0.23
			c0.06-0.01,0.36,0.32,0.4,0.37c0.05,0.05,0.38,0.34,0.37,0.4c-0.11-0.13-0.22-0.26-0.33-0.4c0.06,0.1,0.13,0.21,0.19,0.31
			c0.02,0.08,0.3,0.69,0.07,0.08c-0.24-0.63-0.01,0.13,0.05,0.28c0.23,0.56-0.07-0.44-0.03-0.39c0.04,0.05,0.06,1.3,0.05,0.44
			c-0.01-0.81-0.03,0.77-0.25,0.77c-0.12,0,0.49-0.8,0.1-0.33c-0.03,0.04-0.24,0.48-0.29,0.47c-0.08-0.02,0.65-0.66,0.06-0.14
			c-0.09,0.08-0.55,0.42-0.07,0.09c0.58-0.4-0.61,0.02,0.1-0.06c0.39-0.04,0.66-0.15,1.08-0.08c0.16,0.03,1.17,0.53,0.67,0.23
			c-0.46-0.27,0.3,0.22,0.31,0.24c0.18,0.18,0.41,0.85,0.14,0.15c0.02,0.05,0.22,0.86,0.15,0.36c-0.07-0.47-0.03,0.17-0.03,0.22
			c-0.05-0.29-0.02-0.63-0.01-0.91c0-0.06,0.1-0.79,0.02-0.27c-0.09,0.57,0.18-0.75,0.17-0.72c0.08-0.32,0.18-0.63,0.26-0.95
			c0.26-0.95-0.08,0.27-0.11,0.23c-0.02-0.02,0.21-0.4,0.23-0.43c0.46-0.45-0.65,0.66-0.2,0.23c0.38-0.37-0.43,0.29-0.41,0.28
			c-0.76,0.43-1.55,0.36-2.33,0.09c0.24,0.08,0.67,0.57-0.04-0.09c0.14,0.13,0.29,0.25,0.43,0.39c0.14,0.13,0.27,0.27,0.4,0.41
			c0.61,0.63,0.05,0.08-0.04-0.08c0.23,0.38,0.45,0.78,0.68,1.16c0.28,0.46-0.09-0.21-0.11-0.28c0.08,0.31,0.2,0.61,0.28,0.92
			c0.01,0.05,0.16,0.54,0.12,0.56c-0.04,0.03-0.04-0.96-0.06-0.34c-0.01,0.24-0.02,0.53,0.02,0.77c0.1,0.66,0.01-0.52,0.1-0.43
			c0.13,0.13-0.5,1.43-0.16,0.73c0.29-0.59,0-0.07-0.05,0.04c-0.45,0.95,0.43-0.47,0.07-0.04c-0.02,0.03-0.32,0.35-0.35,0.34
			c-0.17-0.1,0.99-0.59,1.09-0.62c-0.31,0.09-0.44-0.02,0.06,0.03c0.41,0.05,0.87,0.12,1.28,0.17c0.46,0.06,0.25,0.12,0-0.04
			c0.37,0.23,0.58,0.41,0.83,0.8c-0.12-0.18-0.43-0.41-0.07-0.02c0.68,0.74-0.44-0.46-0.07-0.38c0.17,0.03-0.05,0.92,0.09,0.31
			c0.05-0.23,0.26-1.14-0.01-0.21c0.16-0.56,0.28-1.13,0.45-1.68c0.06-0.19,0.14-0.39,0.19-0.58c0.09-0.25,0.07-0.22-0.04,0.09
			c-0.17,0.6-0.65,0.94-1.43,1.01c-0.44,0.25-0.88,0.5-1.33,0.75c-0.54-0.12-0.66-0.15-0.35-0.08c0.18,0.06,0.76,0.31,0.1-0.02
			c-0.69-0.35-0.09-0.04,0.05,0.07c0.46,0.34-0.65-0.7-0.31-0.25c0.11,0.14,0.26,0.29,0.4,0.41c0.36,0.3-0.41-0.74-0.24-0.29
			c0.06,0.16,0.18,0.36,0.28,0.5c0.29,0.4-0.23-0.85-0.16-0.36c0.02,0.17,0.08,0.41,0.16,0.56c0.21,0.41,0-0.89-0.05-0.43
			c-0.02,0.16-0.03,0.42,0.01,0.57c0.1,0.41,0.24-0.83,0.07-0.44c-0.07,0.16-0.12,0.38-0.15,0.55c-0.09,0.54,0.42-0.85,0.14-0.38
			c-0.31,0.53,0.71-0.71,0.24-0.28c-0.45,0.42,0.79-0.49,0.24-0.17c-0.56,0.33,0.9-0.3,0.28-0.13c-0.26,0.06-0.2,0.06,0.2-0.02
			c0.24-0.07,0.47-0.08,0.71-0.01c0.61,0.08,2.05,1.09,2.39,1.6c0.18,0.25,0.28,0.52,0.3,0.82c0.05,0.37,0.06,0.4,0.05,0.1
			c0.04-0.17,0.02-0.43,0.02-0.61c0,0.97-0.02,0.22,0.07-0.11c0.05-0.19,0.13-0.39,0.17-0.58c-0.19,0.84-0.08,0.16,0.09-0.14
			c0.1-0.18,0.21-0.35,0.31-0.52c0.65-1.06-0.59,0.62,0.26-0.28c1.75-1.84,1.96-5.06,0-6.86
			C309.87,241.74,306.77,241.52,304.9,243.48L304.9,243.48z"/>
	</g>
</g>
<g>
	<g>
		<path class="st0" d="M240.74,366.43c0.34,2.15,0.8,4.38,2.03,6.22c0.81,1.2,1.7,2.13,2.89,2.95c1.24,0.86,2.62,1.17,4.08,1.34
			c0.37-0.05,0.74-0.1,1.11-0.15c0.54-0.13,1.02-0.38,1.42-0.75c0.68-0.53,1.32-1.31,1.5-2.17c0.65-3.18,0.67-6.23,0.14-9.43
			c-0.16-0.97-1.11-2.02-1.92-2.5c-0.9-0.53-2.22-0.75-3.23-0.42c-1.01,0.33-1.99,0.96-2.5,1.92c-0.56,1.05-0.61,2.05-0.42,3.23
			c0.55,3.39,1.1,6.79,1.65,10.18c2.33-1.36,4.66-2.72,7-4.07c-0.91-1.07-1.81-2.14-2.66-3.25c0.22,0.28,0.44,0.56,0.65,0.85
			c-1.34-1.75-2.57-3.6-3.44-5.64c0.14,0.33,0.28,0.67,0.42,1c-0.31-0.76-0.57-1.53-0.78-2.32c-0.41-1.61-1.88-2.78-3.48-3
			c-1.63-0.22-3.33,0.54-4.17,2c-1.68,2.92-1.68,6.51-0.1,9.47c1.27,2.39,3.63,3.7,5.7,5.28c-0.28-0.22-0.56-0.44-0.85-0.65
			c0.56,0.44,1.08,0.91,1.52,1.48c-0.22-0.28-0.44-0.56-0.65-0.85c0.03,0.04,0.06,0.09,0.1,0.13c0.67,0.91,1.38,1.61,2.5,1.92
			c1,0.28,2.34,0.15,3.23-0.42c0.89-0.58,1.68-1.43,1.92-2.5c0.24-1.03,0.23-2.33-0.42-3.23c-0.43-0.59-0.87-1.2-1.4-1.71
			c-0.55-0.53-1.18-0.99-1.78-1.45c-0.73-0.55-1.5-1.05-2.22-1.61c0.28,0.22,0.56,0.44,0.85,0.65c-0.52-0.41-1-0.84-1.41-1.35
			c0.22,0.28,0.44,0.56,0.65,0.85c-0.27-0.36-0.5-0.73-0.69-1.14c0.14,0.33,0.28,0.67,0.42,1c-0.19-0.47-0.32-0.95-0.4-1.46
			c0.05,0.37,0.1,0.74,0.15,1.11c-0.06-0.51-0.05-1.01,0.02-1.51c-0.05,0.37-0.1,0.74-0.15,1.11c0.07-0.45,0.19-0.87,0.36-1.29
			c-0.14,0.33-0.28,0.67-0.42,1c0.09-0.21,0.19-0.4,0.31-0.6c-2.55-0.33-5.1-0.67-7.65-1c1.29,5.07,4.64,9.15,7.95,13.05
			c0.28,0.22,0.56,0.44,0.85,0.65c0.48,0.31,1,0.47,1.56,0.5c0.89,0.12,1.89,0.01,2.67-0.5c0.61-0.39,1.11-0.9,1.5-1.5
			c0.63-0.98,0.6-2.13,0.42-3.23c-0.55-3.39-1.1-6.79-1.65-10.18c-2.69,0.74-5.38,1.48-8.07,2.23c0.03,0.21,0.07,0.42,0.1,0.63
			c-0.05-0.37-0.1-0.74-0.15-1.11c0.22,1.7,0.23,3.4,0.01,5.1c0.05-0.37,0.1-0.74,0.15-1.11c-0.07,0.49-0.15,0.98-0.25,1.47
			c1.35-1.02,2.69-2.05,4.04-3.07c-0.06-0.01-0.11-0.01-0.17-0.02c0.37,0.05,0.74,0.1,1.11,0.15c-0.33-0.05-0.64-0.14-0.95-0.27
			c0.33,0.14,0.67,0.28,1,0.42c-0.36-0.16-0.68-0.35-0.99-0.58c0.28,0.22,0.56,0.44,0.85,0.65c-0.4-0.32-0.75-0.67-1.06-1.08
			c0.22,0.28,0.44,0.56,0.65,0.85c-0.32-0.44-0.58-0.9-0.8-1.39c0.14,0.33,0.28,0.67,0.42,1c-0.55-1.31-0.79-2.7-1.01-4.1
			c-0.15-0.97-1.11-2.03-1.92-2.5c-0.9-0.53-2.22-0.75-3.23-0.42c-1.01,0.33-1.99,0.96-2.5,1.92c-0.14,0.33-0.28,0.67-0.42,1
			C240.54,364.95,240.54,365.69,240.74,366.43L240.74,366.43z"/>
	</g>
</g>
<g>
	<g>
		<path class="st0" d="M223.84,358.33c-0.52-0.95-1.04-1.91-1.56-2.86c-1.28-2.34-4.75-2.76-6.58-0.85
			c-2.24,2.34-2.69,5.72-1.09,8.55c0.83,1.46,2.55,2.22,4.17,2c1.49-0.2,3.23-1.39,3.48-3c0.47-3.05-0.32-5.56-2.31-7.9
			c-1.58-1.86-3.78-3.2-5.79-4.53c-4.23-2.8-8.59-5.37-13.08-7.73c-4.21-2.22-8.36,3.04-5.07,6.58
			c5.07,5.46,11.08,10.08,17.66,13.58c1.86,0.99,4.1,0.6,5.4-1.08c1.36-1.76,1-3.85-0.33-5.5c-8.72-10.78-19.14-20.11-30.71-27.75
			c-1.74-1.15-4.19-0.49-5.4,1.08c-1.36,1.76-1,3.85,0.33,5.5c4.17,5.18,8.34,10.36,12.51,15.53c1.3,1.62,4,1.48,5.5,0.33
			c1.63-1.26,2.14-3.58,1.08-5.4c-3.77-6.43-8.66-12.28-14.44-16.99c-1.47-1.19-2.98-2.33-4.52-3.43c-0.68-0.48-1.35-0.97-2.03-1.45
			c-0.36-0.26-0.72-0.53-1.08-0.8c-0.14-0.1-1-0.79-0.37-0.28c-1.27-1.02-2.5-2.09-3.59-3.3c-0.25-0.28-0.49-0.55-0.72-0.85
			c0.54,0.7-0.17-0.28-0.21-0.35c-0.48-0.73-0.88-1.49-1.23-2.29c-2.19,1.69-4.38,3.38-6.58,5.07c6.63,5.76,13.01,11.81,19.12,18.12
			c1.52,1.58,4.41,1.65,5.92,0c1.56-1.69,1.63-4.24,0-5.92c-6.11-6.32-12.48-12.36-19.12-18.12c-1.59-1.38-3.78-1.66-5.5-0.33
			c-1.77,1.37-1.93,3.46-1.08,5.4c1.39,3.17,3.81,5.83,6.46,8c1.46,1.2,2.98,2.32,4.51,3.42c0.62,0.45,1.25,0.89,1.87,1.34
			c0.31,0.22,0.61,0.45,0.92,0.67c0.21,0.16,0.43,0.32,0.64,0.48c-0.23-0.18-0.24-0.18-0.01-0.01c2.82,2.23,5.43,4.72,7.8,7.42
			c0.56,0.64,1.1,1.28,1.63,1.94c0.18,0.22,0.35,0.44,0.52,0.66c-0.18-0.23-0.19-0.24-0.01-0.01c0.3,0.39,0.59,0.79,0.87,1.19
			c1.06,1.49,2.05,3.03,2.98,4.62c2.19-1.69,4.38-3.38,6.58-5.07c-4.17-5.18-8.34-10.36-12.51-15.53c-1.69,2.19-3.38,4.38-5.07,6.58
			c1.39,0.92,2.77,1.86,4.13,2.83c0.65,0.46,1.3,0.93,1.94,1.41c0.35,0.26,0.7,0.52,1.04,0.78c-0.02-0.01,1.01,0.78,0.53,0.41
			c2.63,2.05,5.19,4.2,7.66,6.45c4.94,4.49,9.52,9.37,13.72,14.56c1.69-2.19,3.38-4.38,5.07-6.58c-6.34-3.37-11.07-7.01-15.96-12.27
			c-1.69,2.19-3.38,4.38-5.07,6.58c3.79,2,7.51,4.15,11.12,6.46c0.85,0.55,1.7,1.1,2.54,1.66c0.52,0.35,1.04,0.69,1.55,1.05
			c0.15,0.1,0.99,0.75,0.34,0.23c0.29,0.24,0.58,0.48,0.85,0.74c0.16,0.15,1.02,1.28,0.55,0.54c0.1,0.14,0.19,0.29,0.28,0.45
			c0.14,0.27,0.12,0.2-0.06-0.22c0.12,0.47,0.14,0.43,0.07-0.13c-0.01,0.48,0.02,0.45,0.09-0.08c2.55-0.33,5.1-0.67,7.65-1
			c0.18,0.31,0.04,1.18,0.15,0.47c-0.07,0.42-0.04,0.78-0.37,1.13c-2.19-0.28-4.38-0.56-6.58-0.85c0.52,0.95,1.04,1.91,1.56,2.86
			c1.05,1.92,3.87,2.7,5.73,1.5C224.29,362.8,224.96,360.39,223.84,358.33L223.84,358.33z"/>
	</g>
</g>
<g>
	<g>
		<path class="st0" d="M279.54,397.34c0.38,0.12,0.77,0.25,1.14,0.39c-0.66-0.26,0.47,0.24,0.64,0.33c0.78,0.4,1.53,0.86,2.26,1.34
			c1.54,1.01,3.01,2.13,4.53,3.16c2.97,2.01,6.28,3.49,9.68,4.61c6.33,2.09,13.01,2.87,19.35,4.91c0.88,0.28,1.75,0.59,2.61,0.93
			c0.17,0.07,0.34,0.14,0.51,0.21c-0.38-0.15-0.33-0.14,0.02,0.01c0.39,0.18,0.78,0.36,1.16,0.55c0.82,0.41,1.62,0.86,2.4,1.34
			c0.42,0.26,0.82,0.54,1.23,0.82c0.04,0.02,0.53,0.39,0.17,0.12c-0.39-0.29,0.47,0.39,0.46,0.37c1.68-2.18,3.36-4.36,5.05-6.54
			c-12.23-7.23-24.87-14.37-38.84-17.58c-3.56-0.82-6.47,2.86-4.7,6.12c3.69,6.78,10.56,11.56,18.21,12.59
			c2.06,0.28,4.53,0.27,6.15,0.61c2.01,0.43,3.94,1.18,5.84,1.94c4.16,1.65,8.31,3.3,12.47,4.95c1.52,0.61,3.46-0.31,4.38-1.49
			c1.02-1.32,1.17-3.16,0.33-4.63c-0.96-1.65-1.92-3.31-2.88-4.96c-1.09-1.89-3.81-2.71-5.7-1.49c-1.9,1.23-2.66,3.68-1.49,5.7
			c0.96,1.65,1.92,3.31,2.88,4.96c1.57-2.04,3.14-4.08,4.7-6.12c-3.93-1.56-7.87-3.13-11.8-4.69c-1.85-0.73-3.7-1.49-5.62-1.99
			c-2.13-0.55-4.33-0.71-6.52-0.85c-1.7-0.11-2.42-0.16-4.35-0.77c-0.36-0.11-0.71-0.25-1.06-0.37c-0.45-0.18-0.46-0.18-0.04-0.01
			c-0.17-0.08-0.34-0.15-0.51-0.24c-0.73-0.35-1.45-0.75-2.14-1.18c-0.32-0.2-0.63-0.42-0.94-0.63c-0.79-0.53,0.3,0.3-0.35-0.27
			c-0.67-0.58-1.32-1.16-1.93-1.81c-0.26-0.28-0.5-0.56-0.75-0.85c-0.79-0.91,0.41,0.63-0.28-0.35c-0.51-0.73-0.98-1.47-1.4-2.25
			c-1.57,2.04-3.14,4.08-4.7,6.12c6.76,1.55,12.78,3.88,18.7,6.74c6.22,3.01,12.21,6.48,18.15,10c1.79,1.06,4.12,0.54,5.37-1.07
			c1.17-1.51,1.28-4.14-0.33-5.47c-5.69-4.71-12.56-6.85-19.66-8.44c-3.39-0.76-6.79-1.44-10.13-2.41
			c-0.78-0.23-1.56-0.47-2.33-0.73c-0.35-0.12-0.71-0.25-1.06-0.38c-0.17-0.07-0.35-0.13-0.52-0.2c0.02,0.01-1.01-0.41-0.54-0.21
			c0.35,0.15-0.54-0.25-0.7-0.32c-0.39-0.18-0.78-0.38-1.17-0.58c-0.79-0.41-1.57-0.86-2.32-1.35c-3.76-2.41-7.07-5.27-11.41-6.62
			c-2.08-0.65-4.63,0.77-5.12,2.91C276.11,394.48,277.31,396.65,279.54,397.34L279.54,397.34z"/>
	</g>
</g>
<g>
	<g>
		<path class="st0" d="M130.93,262.19c3.12,0,3.13-4.85,0-4.85C127.81,257.34,127.8,262.19,130.93,262.19L130.93,262.19z"/>
	</g>
</g>
<g>
	<g>
		<path class="st0" d="M136.04,267.97c3.12,0,3.13-4.85,0-4.85C132.92,263.11,132.91,267.97,136.04,267.97L136.04,267.97z"/>
	</g>
</g>
<g>
	<g>
		<path class="st0" d="M261.32,296.16c3.12,0,3.13-4.85,0-4.85C258.19,291.31,258.19,296.16,261.32,296.16L261.32,296.16z"/>
	</g>
</g>
<g>
	<g>
		<path class="st0" d="M259.04,284.28c3.12,0,3.13-4.85,0-4.85C255.92,279.42,255.92,284.28,259.04,284.28L259.04,284.28z"/>
	</g>
</g>
<g id="XMLID_6_">
	<g>
		<path class="st0" d="M357.39,228.33c1.6,4.96-2.6,10.83-7.75,11.02c-5.18,0.1-9.7-5.55-8.38-10.56c3.7-1.53,4.79-3.28,8.69-4.05
			c1.58-0.24,3.33-0.52,4.71,0.21C356.02,225.59,356.91,226.91,357.39,228.33z"/>
		<path class="st0" d="M300.35,193.2c1.83,2.07,3.42,5.3,1.85,7.64c-1.63,2.44-5.43,1.9-8.25,0.92
			c-13.77-4.73-26.16-12.49-38.53-20.16c-2.98-1.95-6.05-3.87-8.2-6.77c-2.12-2.82-2.99-6.78-1.37-9.96l0.49,0.14
			C262.49,177.61,286.84,177.79,300.35,193.2z"/>
		<path class="st0" d="M223.02,298.65c6.16,1.19,12.85,1.97,17.63,6.17c5.95,5.18,6.74,15.38,1.59,21.41
			c-1.33,1.54-2.97,2.89-5.02,3.44c-3.5,0.93-7.03-0.68-10.31-2.37c-17.4-9.07-33.58-20.47-47.92-33.82l0.71-1.47
			c-2.5-1.16-4.9-2.62-6.33-4.89c-1.47-2.44-1.1-6.19,1.51-7.35c1.61-0.8,3.38-0.35,5.01,0.31c3.94,1.42,7.42,3.87,11.03,6.1
			C200.83,292.14,211.73,296.36,223.02,298.65z"/>
		<path class="st0" d="M154.61,269.83c2.63,2.68,1.73,7.85-1.52,9.72c-3.33,1.89-8.07,0.23-9.62-3.19c-0.71-1.64-0.32-4.3,1.56-4.43
			C146.49,268.52,151.95,267.06,154.61,269.83z"/>
		<path class="st0" d="M148.81,247.71c0.31,0.83,0.37,1.73,0.34,2.65c-0.26,2.81-1.78,5.68-4.24,7.07
			c-2.55,1.41-6.04,0.97-7.83-1.29c-1.71-2.29-3.63-6.43-0.88-7.44c1.88-1.51,3.91-3.14,6.32-3.69
			C144.93,244.46,147.92,245.39,148.81,247.71z"/>
	</g>
	<g>
		<path class="st3" d="M178.99,293.48c14.34,13.35,30.52,24.75,47.92,33.82c3.28,1.68,6.82,3.3,10.31,2.37
			c2.05-0.55,3.7-1.9,5.02-3.44c5.15-6.03,4.35-16.23-1.59-21.41c-4.77-4.21-11.47-4.98-17.63-6.17
			c-11.3-2.29-22.19-6.51-32.09-12.46c-3.61-2.24-7.09-4.69-11.03-6.1c-1.64-0.66-3.4-1.1-5.01-0.31c-2.62,1.15-2.99,4.91-1.51,7.35
			c1.43,2.27,3.83,3.73,6.33,4.89c0.13,0.15,0.32,0.19,0.43,0.25"/>
		<path class="st3" d="M145.03,271.92c-1.88,0.14-2.27,2.8-1.56,4.43c1.55,3.42,6.29,5.08,9.62,3.19c3.25-1.87,4.15-7.04,1.52-9.72
			C151.95,267.06,146.49,268.52,145.03,271.92z"/>
		<path class="st3" d="M136.19,248.7c-2.75,1.01-0.82,5.15,0.88,7.44c1.79,2.26,5.29,2.7,7.83,1.29c2.46-1.39,3.98-4.26,4.24-7.07
			c0.03-0.92-0.03-1.82-0.34-2.65c-0.89-2.32-3.88-3.26-6.29-2.71C140.1,245.56,138.07,247.19,136.19,248.7z"/>
		<path class="st3" d="M341.25,228.79c-1.31,5.01,3.2,10.66,8.38,10.56c5.16-0.19,9.35-6.05,7.75-11.02
			c-0.47-1.43-1.37-2.74-2.73-3.38c-1.38-0.73-3.13-0.44-4.71-0.21C346.04,225.51,344.95,227.26,341.25,228.79z"/>
		<path class="st3" d="M245.85,164.87c-1.62,3.17-0.75,7.14,1.37,9.96c2.14,2.9,5.21,4.82,8.2,6.77
			c12.36,7.67,24.75,15.42,38.53,20.16c2.82,0.98,6.62,1.53,8.25-0.92c1.57-2.34-0.02-5.57-1.85-7.64
			c-13.51-15.4-37.86-15.58-54-28.18"/>
	</g>
</g>
<g>
	<g>
		<path class="st0" d="M221.21,162.31c3.12,0,3.13-4.85,0-4.85C218.08,157.46,218.08,162.31,221.21,162.31L221.21,162.31z"/>
	</g>
</g>
<g>
	<g>
		<path class="st0" d="M207.32,157.09c3.12,0,3.13-4.85,0-4.85C204.2,152.23,204.2,157.09,207.32,157.09L207.32,157.09z"/>
	</g>
</g>
<g>
	<g>
		<path class="st0" d="M229.7,170.75c3.12,0,3.13-4.85,0-4.85C226.58,165.9,226.57,170.75,229.7,170.75L229.7,170.75z"/>
	</g>
</g>
<g>
	<g>
		<path class="st2" d="M120.51,223.75c0.79-7.84,1.61-15.72,3.56-23.37c0.97-3.78,2.21-7.51,3.88-11.05c1.72-3.65,3.98-7,5.91-10.53
			c1.92-3.53,3.07-7.48,5.24-10.87c1.85-2.88,4.52-5.19,7.6-6.68c3.57-1.73,7.58-2.04,11.48-1.84c4.15,0.21,8.31,0.83,12.41,1.52
			c16.54,2.79,32.32,8.3,47.34,15.71c7.51,3.71,14.83,7.76,22.15,11.83c7.19,3.99,14.38,7.97,21.28,12.45
			c13.04,8.47,24.49,19.1,33.4,31.88c1.06,1.52,2.08,3.06,3.06,4.63c0.83,1.32,2.93,0.1,2.1-1.22
			c-8.43-13.37-19.47-24.91-32.38-34.02c-6.89-4.87-14.21-9.09-21.57-13.21c-7.48-4.18-14.96-8.37-22.58-12.29
			c-7.62-3.92-15.42-7.54-23.47-10.49c-8.03-2.94-16.3-5.25-24.7-6.88c-4.19-0.82-8.42-1.47-12.67-1.95
			c-4.16-0.48-8.41-0.73-12.53,0.19c-3.54,0.79-6.83,2.55-9.51,4.98c-2.91,2.64-4.65,5.98-6.17,9.55
			c-1.64,3.86-3.69,7.41-5.81,11.02c-2.06,3.51-3.79,7.16-5.12,11.01c-2.63,7.6-3.8,15.62-4.69,23.59
			c-0.22,2.01-0.43,4.03-0.63,6.05C117.93,225.3,120.35,225.29,120.51,223.75L120.51,223.75z"/>
	</g>
</g>
<g>
	<path class="st2" d="M129.59,219.13c1.47-9.22,3.79-18.3,6.93-27.09c3.27-9.18,8.34-18.91,17.53-22.14
		c6.33-2.23,13.31-0.86,19.81,0.81c10.52,2.69,20.86,6.11,30.91,10.22c3.22,1.32,6.89,3.32,7.23,6.78c0.21,2.19-1.05,4.26-2.47,5.94
		c-7.69,9.1-20.28,11.87-31.7,15.27c-10.95,3.26-21.59,7.57-31.72,12.84c-2.81,1.46-5.73,3.04-8.9,3.08
		c-3.17,0.04-6.62-2.08-6.85-5.24"/>
	<g>
		<path class="st2" d="M130.76,219.45c1.25-7.8,3.1-15.5,5.54-23.02c1.95-5.99,4.18-12,7.87-17.16c3.53-4.95,8.56-8.62,14.74-9.21
			c3.71-0.36,7.43,0.16,11.05,0.95c3.77,0.82,7.5,1.87,11.21,2.95c7.51,2.19,14.92,4.76,22.17,7.68c2.45,0.99,5.49,2.11,6.9,4.51
			c1.65,2.81-0.69,5.77-2.58,7.77c-4.21,4.46-9.81,7.26-15.51,9.33c-6.2,2.25-12.63,3.78-18.9,5.82
			c-7.32,2.38-14.49,5.23-21.44,8.51c-1.7,0.8-3.38,1.63-5.06,2.48c-1.64,0.84-3.26,1.76-4.97,2.47c-2.75,1.15-6.01,1.73-8.55-0.22
			c-0.86-0.66-1.55-1.62-1.65-2.72c-0.06-0.65-0.52-1.21-1.21-1.21c-0.61,0-1.27,0.56-1.21,1.21c0.29,3.22,2.94,5.53,5.98,6.22
			c3.68,0.84,7.3-0.79,10.51-2.44c7.1-3.66,14.33-6.98,21.83-9.73c3.74-1.37,7.52-2.62,11.33-3.74c3.19-0.94,6.41-1.83,9.58-2.82
			c6.27-1.97,12.52-4.39,17.74-8.47c2.6-2.03,5.28-4.59,6.56-7.69c0.67-1.63,0.76-3.46,0.08-5.11c-0.6-1.44-1.65-2.56-2.88-3.5
			c-1.2-0.91-2.55-1.6-3.93-2.19c-1.82-0.78-3.67-1.5-5.52-2.21c-3.84-1.48-7.72-2.85-11.63-4.12s-7.85-2.45-11.82-3.51
			c-3.85-1.04-7.73-2.03-11.7-2.5c-3.88-0.46-7.91-0.33-11.62,0.99c-2.94,1.05-5.57,2.75-7.83,4.9c-4.63,4.42-7.55,10.35-9.8,16.26
			c-2.84,7.44-4.97,15.2-6.54,23.01c-0.39,1.96-0.74,3.92-1.06,5.89c-0.1,0.65,0.17,1.31,0.85,1.49
			C129.85,220.46,130.66,220.11,130.76,219.45L130.76,219.45z"/>
	</g>
</g>
<g>
	<g>
		<path class="st2" d="M217.99,205.98c1.56,0,1.56-2.43,0-2.43C216.43,203.55,216.43,205.98,217.99,205.98L217.99,205.98z"/>
	</g>
</g>
<g>
	<g>
		<path class="st2" d="M223.74,193.11c-0.23,0.06-0.46,0.12-0.69,0.18c-0.16,0.04-0.3,0.11-0.41,0.22c-0.13,0.09-0.24,0.2-0.31,0.34
			c-0.09,0.14-0.14,0.29-0.14,0.45c-0.04,0.16-0.03,0.32,0.02,0.48c0.04,0.1,0.08,0.19,0.12,0.29c0.11,0.18,0.25,0.33,0.44,0.44
			c0.1,0.04,0.19,0.08,0.29,0.12c0.22,0.06,0.43,0.06,0.65,0c0.23-0.06,0.46-0.12,0.69-0.18c0.16-0.04,0.3-0.11,0.41-0.22
			c0.13-0.09,0.24-0.2,0.31-0.34c0.09-0.14,0.14-0.29,0.14-0.45c0.04-0.16,0.03-0.32-0.02-0.48c-0.04-0.1-0.08-0.19-0.12-0.29
			c-0.11-0.18-0.25-0.33-0.44-0.44c-0.1-0.04-0.19-0.08-0.29-0.12C224.17,193.05,223.96,193.05,223.74,193.11L223.74,193.11z"/>
	</g>
</g>
<g>
	<g>
		<path class="st2" d="M315.28,223.39c-0.23,0.06-0.46,0.12-0.69,0.18c-0.16,0.04-0.3,0.11-0.41,0.22c-0.13,0.09-0.24,0.2-0.31,0.34
			c-0.09,0.14-0.14,0.29-0.14,0.45c-0.04,0.16-0.03,0.32,0.02,0.48c0.04,0.1,0.08,0.19,0.12,0.29c0.11,0.18,0.25,0.33,0.44,0.44
			c0.1,0.04,0.19,0.08,0.29,0.12c0.22,0.06,0.43,0.06,0.65,0c0.23-0.06,0.46-0.12,0.69-0.18c0.16-0.04,0.3-0.11,0.41-0.22
			c0.13-0.09,0.24-0.2,0.31-0.34c0.09-0.14,0.14-0.29,0.14-0.45c0.04-0.16,0.03-0.32-0.02-0.48c-0.04-0.1-0.08-0.19-0.12-0.29
			c-0.11-0.18-0.25-0.33-0.44-0.44c-0.1-0.04-0.19-0.08-0.29-0.12C315.71,223.33,315.49,223.33,315.28,223.39L315.28,223.39z"/>
	</g>
</g>
<g>
	<g>
		<path class="st2" d="M334.5,216.31c1.56,0,1.56-2.43,0-2.43C332.94,213.88,332.93,216.31,334.5,216.31L334.5,216.31z"/>
	</g>
</g>
<g>
	<g>
		<path class="st2" d="M278.98,284.02c-0.23,0.06-0.46,0.12-0.69,0.18c-0.16,0.04-0.3,0.11-0.41,0.22c-0.13,0.09-0.24,0.2-0.31,0.34
			c-0.09,0.14-0.14,0.29-0.14,0.45c-0.04,0.16-0.03,0.32,0.02,0.48c0.04,0.1,0.08,0.19,0.12,0.29c0.11,0.18,0.25,0.33,0.44,0.44
			c0.1,0.04,0.19,0.08,0.29,0.12c0.22,0.06,0.43,0.06,0.65,0c0.23-0.06,0.46-0.12,0.69-0.18c0.16-0.04,0.3-0.11,0.41-0.22
			c0.13-0.09,0.24-0.2,0.31-0.34c0.09-0.14,0.14-0.29,0.14-0.45c0.04-0.16,0.03-0.32-0.02-0.48c-0.04-0.1-0.08-0.19-0.12-0.29
			c-0.11-0.18-0.25-0.33-0.44-0.44c-0.1-0.04-0.19-0.08-0.29-0.12C279.41,283.97,279.2,283.97,278.98,284.02L278.98,284.02z"/>
	</g>
</g>
<g>
	<g>
		<path class="st2" d="M234.83,344.05c1.56,0,1.56-2.43,0-2.43C233.27,341.62,233.26,344.05,234.83,344.05L234.83,344.05z"/>
	</g>
</g>
<g>
	<path class="st2" d="M160.13,226.7c-3.03-0.14-5.91,2.44-6.17,5.46c-0.26,3.02,2.05,6.03,5.02,6.63c2.97,0.6,6.23-1.21,7.37-4.02
		c0.9-2.23,0.45-5.01-1.28-6.69c-1.73-1.67-4.7-1.98-6.61-0.52"/>
	<g>
		<path class="st2" d="M160.13,225.49c-3.26-0.1-6.32,2.28-7.17,5.41c-0.87,3.21,0.86,6.71,3.71,8.3c2.89,1.62,6.46,0.95,8.87-1.22
			c2.51-2.26,3.16-5.98,1.67-8.99c-1.65-3.34-6.29-4.73-9.37-2.47c-0.53,0.39-0.79,1.05-0.44,1.66c0.31,0.52,1.13,0.82,1.66,0.44
			c1.76-1.28,4.38-0.9,5.65,0.91c1.28,1.83,1.14,4.44-0.29,6.13c-1.42,1.68-3.85,2.55-5.95,1.73c-2-0.77-3.43-2.9-3.31-5.05
			c0.14-2.49,2.54-4.5,4.97-4.42C161.7,227.96,161.69,225.54,160.13,225.49L160.13,225.49z"/>
	</g>
</g>
<g>
	<path class="st2" d="M200.66,270.95c-4.14,3.32-7.5,7.6-9.77,12.39c-1.61,3.4-2.18,8.37,1.15,10.12c1.64,0.86,3.63,0.53,5.46,0.82
		c3.95,0.62,6.91,4.07,10.77,5.11c4.97,1.34,10.51-2.01,12.29-6.83s0.12-10.53-3.48-14.21c-4.44-4.55-11.08-6.08-17.37-6.99"/>
	<g>
		<path class="st2" d="M199.8,270.09c-2.79,2.26-5.22,4.92-7.24,7.89c-1.77,2.6-3.48,5.55-3.99,8.71c-0.45,2.81-0.05,6.04,2.58,7.67
			c1.57,0.97,3.44,0.92,5.21,1.03c1.62,0.1,3.06,0.67,4.46,1.46c2.87,1.62,5.49,3.7,8.88,4.02c3.1,0.29,6.2-0.97,8.53-2.96
			c5.25-4.48,5.3-12.31,1.73-17.85c-3.81-5.9-10.8-8.29-17.39-9.46c-0.84-0.15-1.69-0.28-2.54-0.41c-0.65-0.09-1.3,0.16-1.49,0.85
			c-0.16,0.57,0.19,1.4,0.85,1.49c5.95,0.87,12.47,2.21,16.83,6.68c3.87,3.97,5.44,10.87,1.76,15.48c-1.58,1.98-3.95,3.45-6.49,3.73
			c-2.99,0.34-5.44-1.23-7.88-2.74c-1.27-0.79-2.57-1.55-3.98-2.08c-1.57-0.59-3.18-0.62-4.84-0.72c-1.25-0.08-2.55-0.4-3.24-1.38
			c-0.6-0.86-0.76-1.89-0.75-2.95c0.05-3.12,1.68-6.01,3.32-8.57c2-3.11,4.51-5.85,7.38-8.17c0.51-0.41,0.43-1.29,0-1.72
			C201.02,269.59,200.32,269.68,199.8,270.09L199.8,270.09z"/>
	</g>
</g>
<g>
	<g>
		<path class="st0" d="M100.17,459.69c1.56,0,1.56-2.43,0-2.43C98.61,457.26,98.61,459.69,100.17,459.69L100.17,459.69z"/>
	</g>
</g>
<g>
	<g>
		<path class="st0" d="M335.42,398.82c-3.13,0.85-6.45,0.73-9.51-0.37c-3.12-1.12-5.77-3.26-8.83-4.53
			c-3.05-1.27-6.3-1.96-9.45-2.91c-2.91-0.87-5.78-1.87-8.61-2.98c-11.05-4.33-21.43-10.48-30.57-18.04
			c-5.2-4.31-10.01-9.08-14.36-14.25c-0.42-0.5-1.28-0.44-1.72,0c-0.5,0.5-0.42,1.21,0,1.72c7.89,9.38,17.33,17.46,27.78,23.86
			c5.22,3.2,10.69,5.96,16.34,8.3c2.81,1.16,5.66,2.21,8.56,3.14c3.13,1,6.34,1.73,9.44,2.78c1.87,0.63,3.59,1.49,5.29,2.48
			c1.65,0.96,3.29,1.93,5.07,2.63c3.55,1.38,7.55,1.52,11.21,0.52C337.57,400.75,336.93,398.41,335.42,398.82L335.42,398.82z"/>
	</g>
</g>
<g>
	<g>
		<path class="st0" d="M335.7,390.68c-5.6,2.07-11.31-0.47-16.25-3.1c-2.7-1.44-5.32-3.02-8.05-4.39c-2.84-1.42-5.78-2.63-8.73-3.79
			c-5.76-2.25-11.64-4.29-17.06-7.31c-5.55-3.09-10.49-7.13-15.41-11.11c-4.79-3.89-9.81-8.17-12.24-14.01
			c-0.25-0.59-0.79-1.02-1.47-0.83c-0.56,0.15-1.08,0.87-0.83,1.47c2.28,5.5,6.47,9.73,10.96,13.51c4.91,4.12,9.96,8.25,15.41,11.65
			c5.53,3.44,11.63,5.73,17.69,8.05c2.98,1.14,5.96,2.3,8.86,3.66c2.85,1.33,5.56,2.92,8.32,4.44c5.83,3.21,12.72,6.56,19.44,4.08
			c0.6-0.22,1.01-0.81,0.83-1.47C337.01,390.93,336.31,390.46,335.7,390.68L335.7,390.68z"/>
	</g>
</g>
<g>
	<g>
		<path class="st0" d="M431.05,349.04c2.98-3.16,6.08-6.46,7.84-10.49c1.61-3.67,1.93-7.61,1.18-11.53
			c-1.47-7.71-6.29-14.3-9.31-21.43c-0.74-1.74-1.37-3.53-1.83-5.36c-0.52-2.07-0.73-4.19-1.05-6.3c-0.32-2.12-0.79-4.23-1.81-6.14
			c-1.06-2-2.74-3.5-4.52-4.85c-1.67-1.27-3.38-2.47-5.02-3.77c-1.66-1.32-3.28-2.69-4.86-4.11c-3.18-2.86-6.19-5.92-9.01-9.14
			c-5.61-6.42-10.42-13.54-14.3-21.13c-0.48-0.95-0.95-1.9-1.41-2.86c-0.28-0.59-1.13-0.75-1.66-0.44
			c-0.61,0.35-0.72,1.07-0.44,1.66c3.63,7.65,8.19,14.83,13.51,21.41c5.32,6.58,11.43,12.5,18.15,17.65
			c1.66,1.27,3.44,2.42,5.01,3.81c1.54,1.37,2.63,2.97,3.24,4.94c0.62,2.01,0.84,4.12,1.14,6.2c0.28,1.99,0.68,3.94,1.31,5.85
			c2.41,7.37,7.09,13.74,9.56,21.07c1.1,3.28,1.69,6.79,0.96,10.23c-0.88,4.16-3.47,7.6-6.26,10.7c-0.7,0.78-1.42,1.55-2.14,2.31
			C428.26,348.46,429.97,350.18,431.05,349.04L431.05,349.04z"/>
	</g>
</g>
<g>
	<g>
		<path class="st0" d="M425.05,347.73c5.61-5.44,8.12-13.64,6.77-21.31c-0.7-3.97-2.64-7.54-4.61-11.01
			c-1.95-3.43-4.04-6.96-4.61-10.93c-0.33-2.32-0.08-4.68-0.46-7.01c-0.29-1.75-0.99-3.45-1.99-4.91c-1.97-2.9-4.87-4.99-7.79-6.86
			c-3.15-2.02-6.42-3.84-9.24-6.32c-3.3-2.9-6.08-6.33-8.66-9.86c-5.43-7.43-10.09-15.43-13.89-23.81
			c-0.47-1.04-0.92-2.08-1.36-3.12c-0.26-0.6-1.15-0.74-1.66-0.44c-0.63,0.37-0.69,1.05-0.44,1.66c3.52,8.34,7.88,16.32,13.02,23.79
			c2.5,3.64,5.14,7.23,8.16,10.46c2.79,2.99,5.96,5.44,9.42,7.6c2.86,1.79,5.86,3.47,8.33,5.81c1.15,1.08,2.14,2.29,2.85,3.71
			c0.88,1.75,1.07,3.66,1.11,5.59c0.05,2.19,0.14,4.35,0.73,6.47c0.54,1.93,1.36,3.78,2.28,5.55c1.81,3.51,4.09,6.82,5.47,10.54
			c2.53,6.83,1.27,14.88-3.25,20.61c-0.58,0.73-1.21,1.42-1.89,2.07C422.21,347.11,423.92,348.82,425.05,347.73L425.05,347.73z"/>
	</g>
</g>
<g>
	<g>
		<path class="st0" d="M338.2,384.18c-6.23,1-12.54-1-18.02-3.85c-5.73-2.99-10.82-7.01-16.21-10.54c-2.75-1.8-5.59-3.43-8.55-4.85
			c-2.94-1.41-5.94-2.67-8.87-4.09c-5.25-2.54-10.02-5.76-14.11-9.93c-4.34-4.43-7.83-9.71-10.13-15.48
			c-0.24-0.61-0.81-1.03-1.49-0.85c-0.58,0.16-1.09,0.88-0.85,1.49c4.36,10.96,12.56,20.15,23,25.67c5.93,3.14,12.24,5.4,17.95,8.96
			c5.64,3.52,10.85,7.71,16.66,10.96c6.46,3.61,13.81,6.04,21.26,4.84c0.65-0.1,1.01-0.91,0.85-1.49
			C339.5,384.34,338.85,384.08,338.2,384.18L338.2,384.18z"/>
	</g>
</g>
<g>
	<g>
		<path class="st1" d="M238.66,363.53c-0.6,4.56-0.19,9.21,1.15,13.61c0.57,1.87,1.22,3.72,1.59,5.65c0.3,1.56,0.44,3.35-0.27,4.83
			c-1.52,3.16-5.4,3.15-8.38,2.58c-2-0.39-3.95-1.03-5.88-1.64c-2.18-0.69-4.34-1.43-6.49-2.2c-8.7-3.13-17.16-6.87-25.52-10.82
			c-4.18-1.97-8.33-4-12.48-6.03c-4.03-1.98-8.14-3.89-11.85-6.44c-3.66-2.51-6.78-5.72-9.84-8.9c-3.34-3.47-6.68-6.94-10.02-10.42
			c-0.83-0.86-1.66-1.73-2.49-2.59c-1.08-1.13-2.8,0.59-1.72,1.72c3.47,3.61,6.93,7.21,10.4,10.82c3.21,3.33,6.36,6.76,9.99,9.65
			c3.67,2.92,7.79,5.07,11.98,7.12c4.25,2.09,8.49,4.17,12.76,6.2c8.64,4.12,17.38,8.06,26.35,11.38c4.25,1.57,8.58,3.17,12.99,4.24
			c3.51,0.85,7.68,1.2,10.62-1.31c3.25-2.77,2.68-7.3,1.65-10.96c-0.57-2.03-1.3-4.01-1.75-6.07c-0.5-2.27-0.71-4.58-0.66-6.9
			c0.02-1.17,0.12-2.34,0.27-3.51c0.09-0.65-0.62-1.21-1.21-1.21C239.15,362.31,238.75,362.87,238.66,363.53L238.66,363.53z"/>
	</g>
</g>
<g>
	<g>
		<path class="st1" d="M220.14,357.37c1.67,4.12,3.75,9.28,0.83,13.36c-2.96,4.13-8.29,1.26-11.92-0.15
			c-2.48-0.96-5.01-1.37-7.65-1.63c-2.67-0.26-5.24-0.6-7.8-1.45c-2.54-0.84-4.98-1.96-7.44-3.02c-2.63-1.14-5.27-2.28-7.9-3.43
			c-5.92-2.57-11.83-5.13-17.75-7.7c-0.6-0.26-1.3-0.18-1.66,0.44c-0.3,0.51-0.17,1.4,0.44,1.66c5.53,2.4,11.07,4.8,16.6,7.2
			c2.79,1.21,5.57,2.42,8.36,3.62c2.63,1.14,5.24,2.34,7.94,3.3c2.7,0.95,5.43,1.43,8.27,1.7c2.74,0.27,5.35,0.63,7.94,1.63
			c2.4,0.93,4.74,2.07,7.33,2.35c2.42,0.26,4.87-0.53,6.54-2.33c1.72-1.86,2.57-4.43,2.59-6.94c0.02-3.25-1.19-6.32-2.39-9.27
			c-0.25-0.61-0.81-1.04-1.49-0.85C220.42,356.03,219.9,356.75,220.14,357.37L220.14,357.37z"/>
	</g>
</g>
<g>
	<g>
		<path class="st1" d="M251.85,362.06c1.13,9.23,2.93,18.37,5.43,27.33c1.17,4.19,2.39,8.49,4.71,12.21
			c2.24,3.59,5.48,6.44,8.72,9.1c6.47,5.3,13.63,9.75,21.27,13.15c1.94,0.86,3.91,1.67,5.9,2.4c2.01,0.74,4.06,1.37,6.03,2.19
			c1.9,0.79,3.61,1.87,5.29,3.05c1.63,1.14,3.27,2.27,5.15,2.95c4.29,1.55,8.76-0.22,13.12-0.3c3.98-0.08,7.97,0.86,11.49,2.72
			c0.9,0.48,1.77,1.01,2.61,1.6c0.54,0.38,1.35,0.1,1.66-0.44c0.35-0.6,0.1-1.28-0.44-1.66c-3.32-2.32-7.2-3.83-11.21-4.39
			c-2.03-0.28-4.08-0.35-6.13-0.14c-2.23,0.23-4.44,0.75-6.69,0.81c-2.01,0.06-3.81-0.41-5.55-1.41c-1.67-0.97-3.18-2.19-4.81-3.21
			c-3.61-2.27-7.86-3.29-11.8-4.84c-7.62-3-14.82-7.07-21.37-11.98c-3.23-2.42-6.46-5.04-9.12-8.08c-2.79-3.2-4.35-7.09-5.56-11.1
			c-2.64-8.72-4.57-17.67-5.86-26.68c-0.15-1.08-0.3-2.17-0.43-3.26c-0.08-0.65-0.5-1.21-1.21-1.21
			C252.47,360.84,251.77,361.4,251.85,362.06L251.85,362.06z"/>
	</g>
</g>
<g>
	<g>
		<path d="M418.32,349.59c-3.56,5.23,0.26,11.27,1.8,16.44c0.74,2.49,0.54,5.21,1.44,7.65c0.41,1.11,1.04,2.09,2.01,2.8
			c1.15,0.84,2.6,1.1,3.99,1.1c2.4,0,5.04-0.46,7.14-1.67c2.3-1.32,3.57-3.67,3.27-6.33c-0.34-3.02-2.21-5.41-3.22-8.2
			c-0.24-0.65-0.43-1.34-0.5-2.03c-0.09-0.86,0.02-1.72,0.02-2.57c0.01-1.29-0.27-2.54-0.89-3.68c-1.37-2.5-4.01-4.1-6.61-5.06
			c-1.62-0.6-3.37-1.02-5.09-0.69c-1.43,0.28-2.79,1.18-3.4,2.53c-0.45,0.99,1.02,1.86,1.47,0.86c1.18-2.61,4.55-1.82,6.65-1.03
			c1.94,0.73,3.96,1.91,5.15,3.66c0.6,0.88,0.97,1.87,1.02,2.93c0.06,1.42-0.15,2.8,0.16,4.21c0.56,2.58,2.22,4.73,3.08,7.19
			c0.78,2.23,0.78,4.68-1.22,6.24c-1.61,1.26-3.81,1.7-5.8,1.86c-1.16,0.1-2.43,0.14-3.52-0.33c-0.96-0.41-1.64-1.22-2.01-2.18
			c-0.81-2.07-0.67-4.4-1.16-6.55c-0.67-2.95-2.14-5.64-2.95-8.55c-0.71-2.57-0.89-5.46,0.67-7.76
			C420.41,349.54,418.94,348.69,418.32,349.59L418.32,349.59z"/>
	</g>
</g>
<g>
	<g>
		<path d="M345.05,379.7c-1.33,1.23-2.66,2.46-3.99,3.69c-1.09,1.01-2.23,1.99-3.16,3.15c-0.9,1.11-1.57,2.36-1.72,3.8
			c-0.16,1.56,0.46,3.02,0.65,4.55c0.2,1.58-0.59,2.85-0.96,4.33c-0.36,1.4-0.16,2.8,0.47,4.1c1.22,2.52,3.72,4.28,5.91,5.9
			c2.56,1.91,5.23,3.28,8.44,3.64c1.65,0.18,3.34,0.2,5,0.12c1.36-0.06,2.59-0.47,3.46-1.56c0.78-0.99,1.15-2.24,1.37-3.46
			c0.3-1.64,0.49-3.3,0.73-4.95c0.24-1.65,0.56-3.32,0.57-5c0.01-1.62-0.37-3.18-1.15-4.6c-0.79-1.45-1.91-2.72-3.04-3.92
			c-1.32-1.41-2.66-2.81-3.99-4.21c-2.19-2.3-4.52-5.04-7.93-5.23c-1.1-0.06-1.09,1.64,0,1.7c2.62,0.14,4.54,2.43,6.21,4.19
			c2.06,2.17,4.3,4.27,6.15,6.62c0.79,1.01,1.47,2.13,1.8,3.37c0.38,1.44,0.24,2.97,0.05,4.43c-0.22,1.63-0.47,3.26-0.71,4.89
			c-0.18,1.23-0.31,2.49-0.69,3.68c-0.32,0.99-0.87,1.94-1.94,2.21c-0.64,0.17-1.33,0.13-1.98,0.13c-0.77,0.01-1.54,0.01-2.31-0.02
			c-1.45-0.06-2.89-0.23-4.27-0.7c-1.32-0.45-2.54-1.16-3.68-1.94c-1.13-0.77-2.21-1.6-3.27-2.46c-0.94-0.77-1.87-1.61-2.59-2.6
			c-0.68-0.94-1.17-2.03-1.08-3.21c0.1-1.38,0.93-2.6,1.13-3.97c0.22-1.57-0.33-3.05-0.58-4.58c-0.24-1.47,0.18-2.75,1.06-3.92
			c0.93-1.23,2.14-2.25,3.27-3.29c1.33-1.23,2.66-2.46,3.99-3.69C347.06,380.16,345.85,378.95,345.05,379.7L345.05,379.7z"/>
	</g>
</g>
</svg>
